<?xml version="1.0" encoding="utf-8"?>
<!-- Generator: Adobe Illustrator 16.0.3, SVG Export Plug-In . SVG Version: 6.00 Build 0)  -->
<!DOCTYPE svg PUBLIC "-//W3C//DTD SVG 1.1//EN" "http://www.w3.org/Graphics/SVG/1.1/DTD/svg11.dtd">
<svg version="1.1" id="Layer_1" xmlns="http://www.w3.org/2000/svg" xmlns:xlink="http://www.w3.org/1999/xlink" x="0px" y="0px"
	 width="70px" height="70px" viewBox="0 0 70 70" enable-background="new 0 0 70 70" xml:space="preserve">
<g>
	<g id="Layer_2_30_">
		<g>
			<path fill="#FFFFFF" d="M49.884,24.783l2.331-3.292c0.423-0.597,0.282-1.423-0.316-1.848l-3.514-2.488
				c-0.597-0.422-1.425-0.281-1.847,0.316l-2.389,3.372c-1.763-0.824-3.655-1.416-5.64-1.73V17.74c0-0.878,0.719-1.597,1.596-1.597
				h0.881c0.879,0,1.599-0.719,1.599-1.596V9.691c0-0.879-0.72-1.597-1.599-1.597H29.313c-0.877,0-1.596,0.718-1.596,1.597v4.856
				c0,0.877,0.718,1.596,1.596,1.596h0.882c0.878,0,1.597,0.719,1.597,1.597v1.372c-2.126,0.338-4.149,0.992-6.017,1.912
				l-2.366-3.34c-0.423-0.597-1.25-0.738-1.847-0.315l-3.515,2.488c-0.598,0.423-0.738,1.25-0.316,1.847l2.386,3.371
				c-3.863,3.855-6.256,9.184-6.256,15.061c0,11.738,9.551,21.288,21.289,21.288c11.739,0,21.289-9.55,21.289-21.288
				C56.439,34.108,53.922,28.659,49.884,24.783z M35.151,56.315c-8.921,0-16.18-7.259-16.18-16.181c0-8.921,7.258-16.18,16.18-16.18
				s16.18,7.259,16.18,16.18C51.331,49.057,44.072,56.315,35.151,56.315z"/>
		</g>
	</g>
	<path fill="#FFFFFF" d="M35.795,29.305c1.046,1.532,1.103,3.621-0.056,5.388c-1.155,1.769-3.197,2.703-5.163,2.568
		c0.064,1.886-0.988,3.801-2.875,4.841c-1.765,0.979-3.79,0.922-5.321,0.042c1.295,6.789,7.746,11.381,14.629,10.313
		c7.033-1.092,11.849-7.677,10.757-14.709c-0.814-5.248-4.688-9.26-9.524-10.506C37.649,28.13,36.797,28.853,35.795,29.305z"/>
</g>
</svg>
