<?xml version="1.0" encoding="utf-8"?>
<!-- Generator: Adobe Illustrator 16.0.3, SVG Export Plug-In . SVG Version: 6.00 Build 0)  -->
<!DOCTYPE svg PUBLIC "-//W3C//DTD SVG 1.1//EN" "http://www.w3.org/Graphics/SVG/1.1/DTD/svg11.dtd">
<svg version="1.1" id="Layer_1" xmlns="http://www.w3.org/2000/svg" xmlns:xlink="http://www.w3.org/1999/xlink" x="0px" y="0px"
	 width="500px" height="200px" viewBox="0 0 500 200" enable-background="new 0 0 500 200" xml:space="preserve">
<path fill="#FFFFFF" d="M305.434,34.584c-0.041-3.012-2.357-5.5-5.356-5.774c-24.919-2.332-45.255-15.649-51.958-20.519
	c-1.401-1.022-3.299-1.022-4.701,0c-6.691,4.87-27.027,18.188-51.946,20.519c-2.999,0.274-5.303,2.763-5.355,5.774
	c-0.301,19.654,2.854,86.382,58.152,101.232c0.982,0.264,2.017,0.264,2.999,0C302.564,120.98,305.721,54.239,305.434,34.584z
	 M268.293,53.387l4.041-5.442c0.461-0.622,1.215-0.99,1.682-0.824c0.468,0.164,0.473,0.803,0.012,1.423l-4.042,5.442
	c-0.461,0.621-1.214,0.99-1.681,0.824c-0.084-0.029-0.151-0.072-0.205-0.13C267.85,54.419,267.913,53.897,268.293,53.387z
	 M263.461,52.866l1.404-5.122c0.17-0.621,0.823-1.257,1.457-1.42c0.634-0.162,1.01,0.211,0.84,0.833l-1.405,5.121
	c-0.171,0.622-0.823,1.258-1.456,1.42c-0.324,0.082-0.58,0.026-0.732-0.132C263.425,53.415,263.377,53.17,263.461,52.866z
	 M225.413,46.324c0.633,0.163,1.286,0.799,1.456,1.42l1.405,5.122c0.083,0.305,0.036,0.549-0.108,0.7
	c-0.151,0.158-0.407,0.214-0.731,0.132c-0.634-0.162-1.286-0.798-1.457-1.42l-1.405-5.121
	C224.402,46.535,224.778,46.162,225.413,46.324z M217.719,47.121c0.467-0.166,1.22,0.202,1.681,0.824l4.042,5.442
	c0.379,0.51,0.442,1.032,0.193,1.293c-0.054,0.058-0.122,0.101-0.205,0.13c-0.467,0.166-1.22-0.203-1.681-0.824l-4.042-5.442
	C217.246,47.923,217.251,47.285,217.719,47.121z M216.759,65.483c-0.145,0.151-0.388,0.21-0.695,0.14l-5.179-1.179
	c-0.628-0.144-1.292-0.768-1.481-1.394s0.166-1.018,0.794-0.874l5.178,1.179c0.629,0.143,1.292,0.767,1.481,1.393
	C216.955,65.067,216.911,65.326,216.759,65.483z M217.795,60.698c-0.026,0.084-0.067,0.154-0.121,0.211
	c-0.25,0.261-0.774,0.22-1.301-0.137l-5.614-3.799c-0.64-0.434-1.042-1.17-0.897-1.644c0.144-0.476,0.781-0.508,1.422-0.074
	l5.614,3.8C217.539,59.488,217.939,60.224,217.795,60.698z M213.321,51.948c-0.574-0.55-0.78-1.265-0.461-1.599
	c0.002-0.002,0.006-0.005,0.008-0.007c0.002-0.003,0.005-0.007,0.007-0.009c0.319-0.334,1.043-0.159,1.617,0.391
	c3.587,3.434,4.994,4.829,5.052,4.887c0.542,0.539,0.731,1.214,0.444,1.546c-0.318,0.301-1.002,0.141-1.563-0.377
	C218.364,56.725,216.908,55.38,213.321,51.948z M272.057,70.379c-4.876,4.667-10.538,7.2-14.758,7.202l-4.549,4.354l6.679,6.394
	c1.376,1.315,2.171,2.863,2.241,4.357c0.058,1.219-0.364,2.363-1.189,3.226c-0.002,0.002-0.004,0.003-0.006,0.004
	c0,0.003-0.002,0.005-0.004,0.006c-0.824,0.861-1.951,1.334-3.17,1.33c-1.496-0.004-3.076-0.731-4.453-2.048l-6.981-6.682
	l-6.981,6.682c-1.375,1.316-2.957,2.044-4.452,2.048c-1.219,0.004-2.345-0.469-3.17-1.33c-0.002-0.001-0.004-0.003-0.005-0.006
	c-0.001-0.001-0.003-0.002-0.005-0.004c-0.825-0.862-1.247-2.007-1.19-3.226c0.071-1.494,0.866-3.042,2.242-4.357l6.68-6.394
	l-4.549-4.354c-4.22-0.002-9.882-2.535-14.758-7.202c-0.885-0.847-0.969-2.37-0.619-3.619c0.552-1.965,1.948-4.15,4.152-6.499
	c0.002-0.002,0.003-0.004,0.005-0.005c0.002-0.002,0.003-0.004,0.004-0.007c2.25-2.304,4.372-3.795,6.311-4.432
	c1.233-0.405,2.758-0.388,3.643,0.46c4.875,4.666,7.655,10.211,7.842,14.429l4.85,4.643l4.851-4.643
	c0.187-4.218,2.967-9.763,7.843-14.429c0.885-0.848,2.409-0.865,3.643-0.46c1.938,0.637,4.061,2.128,6.311,4.432
	c0.002,0.003,0.003,0.005,0.004,0.007c0.003,0.001,0.004,0.003,0.006,0.005c2.204,2.349,3.6,4.534,4.152,6.499
	C273.026,68.009,272.941,69.533,272.057,70.379z M271.746,57.157c-0.286-0.332-0.098-1.007,0.445-1.546
	c0.057-0.058,1.464-1.453,5.051-4.887c0.574-0.55,1.299-0.725,1.617-0.391c0.002,0.002,0.004,0.006,0.008,0.009
	c0.002,0.002,0.005,0.005,0.008,0.007c0.318,0.334,0.111,1.049-0.462,1.599c-3.587,3.433-5.043,4.777-5.104,4.832
	C272.748,57.297,272.064,57.458,271.746,57.157z M274.06,60.909c-0.054-0.057-0.095-0.127-0.12-0.211
	c-0.145-0.474,0.256-1.21,0.897-1.643l5.614-3.8c0.64-0.434,1.277-0.401,1.422,0.074c0.144,0.474-0.258,1.21-0.898,1.644
	l-5.613,3.799C274.834,61.128,274.31,61.169,274.06,60.909z M282.33,63.05c-0.189,0.626-0.853,1.25-1.48,1.394l-5.18,1.179
	c-0.307,0.07-0.551,0.012-0.695-0.14c-0.15-0.157-0.195-0.416-0.099-0.735c0.19-0.626,0.853-1.25,1.481-1.393l5.178-1.179
	C282.164,62.033,282.52,62.424,282.33,63.05z"/>
<g>
	<path fill="#FFFFFF" d="M150.026,157.709l0.432-11.611v-0.4c0-2.1,0.463-3.15,1.39-3.15c0.844,0,1.976,1.957,3.396,5.867
		c2.594,7.102,5.702,18.824,9.325,35.17l0.062,0.309l0.247-22.047v-18.711c0.247-1.051,0.937-1.574,2.069-1.574
		c1.132,0,1.698,0.822,1.698,2.469v0.371c-0.247,0.516-0.371,1.133-0.371,1.854l-0.401,23.373v19.33
		c0,0.637-0.175,1.266-0.525,1.883c-0.351,0.617-0.783,0.926-1.297,0.926c-0.885,0-2.615-4.338-5.188-13.014
		c-2.573-8.678-5.115-18.006-7.626-27.992v20.75c0,2.018,0.149,5.023,0.448,9.016c0.298,3.994,0.447,7,0.447,9.018
		c0,0.391-0.237,0.715-0.71,0.973c-0.474,0.258-1.076,0.385-1.807,0.385c-0.73,0-1.096-0.328-1.096-0.988l0.309-4.537
		c0-2.182-0.134-5.723-0.401-10.623c-0.268-4.898-0.401-7.895-0.401-8.984V157.709z"/>
	<path fill="#FFFFFF" d="M180.008,146.314l-1.112-0.031c-0.412,0-0.715,0.088-0.911,0.264c-0.196,0.174-0.293,0.52-0.293,1.033
		c0,4.117,0.257,10.283,0.772,18.496c0.514,8.213,0.772,14.379,0.772,18.496v2.439c0.432-0.063,0.865-0.094,1.297-0.094
		c1.75,0,2.625,0.742,2.625,2.223v0.371l-1.575,1.082l-4.292,0.152c-3.644,0-5.465-0.627-5.465-1.883
		c0-1.008,0.638-1.514,1.915-1.514l1.328,0.094c0.618,0,0.926-0.494,0.926-1.482c0-3.252-0.196-8.125-0.586-14.621
		c-0.392-6.494-0.587-11.367-0.587-14.619l0.124-6.455c0-1.357-0.052-2.531-0.154-3.518c-0.556,0.184-1.05,0.277-1.482,0.277
		c-0.988,0-1.482-0.504-1.482-1.514c0-0.514,0.319-0.963,0.957-1.344s1.431-0.652,2.378-0.818c1.77-0.309,3.083-0.463,3.937-0.463
		c0.854,0,1.466,0.17,1.837,0.51s0.556,0.742,0.556,1.203c0,0.465-0.139,0.865-0.417,1.205
		C180.795,146.145,180.44,146.314,180.008,146.314z"/>
	<path fill="#FFFFFF" d="M200.263,179.385l-2.47,0.246c-1.441,0-2.161-0.596-2.161-1.791c0-1.029,1.358-1.697,4.076-2.008
		c0.535-0.061,1.122-0.092,1.76-0.092c0.638,0,1.184,0.33,1.637,0.988c0.453,0.66,0.679,1.539,0.679,2.641s0.211,2.896,0.633,5.387
		c0.421,2.492,0.633,4.17,0.633,5.033c0,1.545-0.52,2.316-1.559,2.316c-1.04,0-1.735-0.443-2.084-1.328v-0.061
		c-0.247,0.102-0.71,0.34-1.39,0.709c-1.276,0.699-2.542,1.051-3.798,1.051c-0.906,0-1.812-0.186-2.717-0.557
		c-1.935-0.762-3.417-2.047-4.446-3.859c-1.111-1.914-1.842-3.746-2.192-5.496s-0.586-3.129-0.71-4.139
		c-0.145-1.027-0.258-2.201-0.34-3.52c-0.103-1.666-0.154-3.674-0.154-6.02l-0.031-4.664c0-4.076,0.134-6.998,0.401-8.77
		c0.267-1.77,0.541-3.221,0.818-4.354c0.278-1.131,0.603-2.135,0.973-3.01s0.823-1.725,1.358-2.547
		c0.535-0.844,1.153-1.533,1.853-2.07c1.502-1.193,3.222-1.785,5.157-1.773c1.935,0.01,2.902,0.611,2.902,1.805
		c0,0.453-0.165,0.814-0.494,1.082c-0.33,0.268-0.721,0.4-1.173,0.4l-1.822-0.309c-1.585,0.021-2.831,0.979-3.736,2.871
		c-0.968,2.08-1.585,4.057-1.853,5.93c-0.268,1.873-0.463,3.387-0.587,4.539c-0.165,1.131-0.268,2.418-0.309,3.859
		c-0.083,1.996-0.114,3.994-0.093,5.99l-0.031,3.922c0,4.033,0.18,6.906,0.541,8.613c0.36,1.709,0.735,3.068,1.127,4.076
		c0.37,1.029,0.823,1.873,1.358,2.533c1.75,1.338,3.283,2.088,4.601,2.254c1.873,0,3.427-0.885,4.663-2.656
		C201.22,182.863,200.881,180.455,200.263,179.385z"/>
	<path fill="#FFFFFF" d="M220.086,191.797c-1.07,0-1.605-0.699-1.605-2.1c0-8.027-0.186-15.459-0.556-22.293
		c-1.133-0.205-2.192-0.309-3.181-0.309c-0.988,0-1.874,0.164-2.655,0.494c0,2.346,0.174,5.896,0.525,10.652
		c0.35,4.754,0.525,8.348,0.525,10.775c0,0.412-0.124,0.793-0.371,1.143c-0.247,0.352-0.577,0.525-0.988,0.525
		c-1.153,0.02-1.997-3.592-2.532-10.838c-0.721-9.82-1.081-21.695-1.081-35.633c0-0.762,0.36-1.143,1.081-1.143
		c0.391,0,0.813,0.107,1.266,0.324c0.452,0.217,0.772,0.447,0.957,0.695c-0.144,1.502-0.216,3.088-0.216,4.756l0.433,12.998
		l-0.062,2.377c0,0.598,0.041,1.143,0.124,1.637l6.145-0.463l-0.247-20.75v-1.666c1.606,0,2.563,0.721,2.872,2.16
		c0.144,0.701,0.216,2.48,0.216,5.342s0.201,8.93,0.602,18.203c0.402,9.273,0.602,16.215,0.602,20.826
		c0,0.557-0.175,1.076-0.525,1.561C221.064,191.555,220.622,191.797,220.086,191.797z"/>
	<path fill="#FFFFFF" d="M233.703,154.127l-0.124,8.15l0.556,14.543l0.525,11.363c0,2.059-0.607,3.088-1.822,3.088
		c-0.7,0-1.215-0.328-1.544-0.988c-0.33-0.658-0.494-1.389-0.494-2.191l0.494-10.098c0-2.182-0.144-5.465-0.432-9.85
		c-0.289-4.385-0.433-7.668-0.433-9.85l0.093-5.527c0-3.025-0.196-4.99-0.586-5.896l-3.428,0.34c-0.536,0-1.014-0.16-1.436-0.479
		c-0.422-0.32-0.633-0.732-0.633-1.236s0.504-0.93,1.513-1.281c1.029-0.371,2.264-0.637,3.705-0.803
		c2.532-0.289,4.663-0.432,6.392-0.432c0.515,0,0.983,0.17,1.405,0.508c0.422,0.34,0.633,0.768,0.633,1.283
		c0,0.514-0.185,0.92-0.556,1.219s-0.824,0.447-1.359,0.447l-2.254-0.123c-0.289,0-0.505,0.01-0.648,0.031
		C233.559,148.775,233.703,151.369,233.703,154.127z"/>
	<path fill="#FFFFFF" d="M267.699,189.512c0,0.639-0.16,1.164-0.479,1.574c-0.32,0.412-0.787,0.619-1.404,0.619
		c-1.524,0-3.439-8.102-5.744-24.301c-0.329-2.389-0.535-3.768-0.617-4.139c-0.783,5.621-1.379,10.473-1.791,14.559
		c-0.412,4.088-0.617,8.137-0.617,12.15c0,0.453-0.19,0.859-0.571,1.221c-0.381,0.359-0.798,0.539-1.251,0.539
		c-1.543,0-2.315-1.605-2.315-4.816c0-1.977-0.87-9.197-2.609-21.66c-1.739-12.465-2.846-19.283-3.319-20.457
		c0.535-1.008,1.286-1.512,2.254-1.512c0.967,0,1.847,2.191,2.64,6.576c0.792,4.385,1.471,9.701,2.037,15.947
		c0.566,6.248,0.859,9.414,0.881,9.496c0.061-0.576,0.271-2.352,0.633-5.326c0.359-2.975,0.643-5.367,0.85-7.18
		c0.617-5.475,0.926-9.365,0.926-11.672v-1.203c0-0.453,0.17-0.891,0.51-1.313c0.339-0.422,0.725-0.633,1.158-0.633
		c1.502,0,2.254,0.617,2.254,1.852v0.957c0,4.076,0.945,9.975,2.84,17.693c0.823,3.377,1.41,6.082,1.76,8.121
		c0.227-2.326,0.639-5.691,1.235-10.098c1.298-9.592,1.945-16.982,1.945-22.17c0-0.926,0.154-1.6,0.464-2.021
		c0.309-0.422,0.813-0.633,1.512-0.633c0.7,0,1.251,0.164,1.652,0.494c0.401,0.328,0.602,0.75,0.602,1.266
		c0,0.514-0.215,0.988-0.647,1.42c0,6.135-0.798,13.57-2.394,22.309C268.497,175.91,267.699,183.357,267.699,189.512z"/>
	<path fill="#FFFFFF" d="M288.418,190.809c-1.297,0-1.945-0.545-1.945-1.637v-8.244c-0.598-0.412-1.672-0.762-3.227-1.049
		c-1.555-0.289-2.939-0.475-4.153-0.557c-0.433,0.74-0.787,1.813-1.065,3.211c-0.277,1.4-0.566,2.811-0.864,4.23
		s-0.694,2.543-1.188,3.365c-1.647,0-2.573-0.422-2.779-1.266c0.576-0.822,1.514-5.033,2.811-12.629s2.361-13.539,3.195-17.832
		c0.834-4.291,1.734-7.898,2.701-10.822c0.967-2.922,1.895-4.385,2.779-4.385s1.564,0.186,2.037,0.557
		c0,1.502,0.412,5.568,1.236,12.195c0.822,6.629,1.234,10.916,1.234,12.861s0.221,5.178,0.664,9.695
		c0.443,4.52,0.664,7.91,0.664,10.174C290.518,190.1,289.817,190.809,288.418,190.809z M285.762,170.166
		c-0.369-3.734-0.705-7.297-1.004-10.682c-0.298-3.387-0.446-5.436-0.446-6.145c0-0.711,0.01-1.117,0.03-1.221
		c-0.658,0.68-1.611,4.457-2.855,11.332c-1.246,6.875-1.91,11.23-1.992,13.063c1.75,0.473,3.217,0.709,4.4,0.709
		s2.022-0.063,2.517-0.186C286.349,176.193,286.133,173.904,285.762,170.166z"/>
	<path fill="#FFFFFF" d="M300.77,154.127l-0.124,8.15l0.556,14.543l0.525,11.363c0,2.059-0.607,3.088-1.822,3.088
		c-0.7,0-1.215-0.328-1.544-0.988c-0.329-0.658-0.494-1.389-0.494-2.191l0.494-10.098c0-2.182-0.144-5.465-0.433-9.85
		c-0.288-4.385-0.432-7.668-0.432-9.85l0.092-5.527c0-3.025-0.195-4.99-0.586-5.896l-3.428,0.34c-0.535,0-1.014-0.16-1.436-0.479
		c-0.422-0.32-0.633-0.732-0.633-1.236s0.504-0.93,1.513-1.281c1.029-0.371,2.265-0.637,3.705-0.803
		c2.532-0.289,4.663-0.432,6.392-0.432c0.515,0,0.982,0.17,1.404,0.508c0.422,0.34,0.634,0.768,0.634,1.283
		c0,0.514-0.185,0.92-0.556,1.219s-0.824,0.447-1.359,0.447l-2.253-0.123c-0.288,0-0.505,0.01-0.649,0.031
		C300.625,148.775,300.77,151.369,300.77,154.127z"/>
	<path fill="#FFFFFF" d="M311.483,159.994l-0.556,4.414v1.514c0,4.898,0.107,8.141,0.324,9.727c0.217,1.584,0.438,3.006,0.663,4.26
		c0.227,1.256,0.521,2.328,0.88,3.211c0.361,0.887,0.788,1.721,1.282,2.502c0.988,1.564,2.356,2.348,4.106,2.348
		c0.721,0,1.615-0.377,2.687-1.129c1.069-0.75,1.884-1.127,2.438-1.127c0.557,0,1.152,0.32,1.791,0.959
		c0,2.119-1.203,3.633-3.611,4.539c-1.195,0.432-2.492,0.648-3.892,0.648s-2.594-0.283-3.581-0.85
		c-0.988-0.566-1.813-1.297-2.471-2.193c-0.659-0.895-1.235-2.041-1.729-3.441c-0.493-1.4-0.886-2.789-1.173-4.168
		c-0.246-1.4-0.453-3.006-0.617-4.818c-0.247-3.045-0.381-6.381-0.402-10.004l0.063-7.564c0-2.408,0.144-4.354,0.432-5.836
		c-0.123-0.68-0.186-1.338-0.186-1.977c0-2.594,0.969-4.658,2.903-6.191s4.323-2.299,7.163-2.299c1.009,0,1.996,0.281,2.965,0.848
		c0.967,0.566,1.451,1.313,1.451,2.238c0,0.453-0.176,0.803-0.525,1.051c-0.35,0.246-0.941,0.371-1.775,0.371
		s-1.404-0.258-1.713-0.771v0.029h-0.865v-0.154c-2.45,0-4.117,0.762-5.002,2.285c-0.823,1.4-1.235,3.809-1.235,7.227
		L311.483,159.994z"/>
	<path fill="#FFFFFF" d="M339.674,191.797c-1.07,0-1.605-0.699-1.605-2.1c0-8.027-0.186-15.459-0.555-22.293
		c-1.133-0.205-2.193-0.309-3.182-0.309s-1.873,0.164-2.656,0.494c0,2.346,0.176,5.896,0.525,10.652
		c0.35,4.754,0.525,8.348,0.525,10.775c0,0.412-0.123,0.793-0.369,1.143c-0.248,0.352-0.578,0.525-0.988,0.525
		c-1.154,0.02-1.998-3.592-2.533-10.838c-0.721-9.82-1.08-21.695-1.08-35.633c0-0.762,0.359-1.143,1.08-1.143
		c0.391,0,0.813,0.107,1.266,0.324s0.773,0.447,0.957,0.695c-0.145,1.502-0.215,3.088-0.215,4.756l0.432,12.998l-0.063,2.377
		c0,0.598,0.041,1.143,0.125,1.637l6.145-0.463l-0.248-20.75v-1.666c1.607,0,2.563,0.721,2.873,2.16
		c0.143,0.701,0.215,2.48,0.215,5.342s0.201,8.93,0.602,18.203c0.402,9.273,0.604,16.215,0.604,20.826
		c0,0.557-0.176,1.076-0.525,1.561C340.652,191.555,340.209,191.797,339.674,191.797z"/>
</g>
</svg>
