<?xml version="1.0" encoding="utf-8"?>
<!-- Generator: Adobe Illustrator 16.0.3, SVG Export Plug-In . SVG Version: 6.00 Build 0)  -->
<!DOCTYPE svg PUBLIC "-//W3C//DTD SVG 1.1//EN" "http://www.w3.org/Graphics/SVG/1.1/DTD/svg11.dtd">
<svg version="1.1" id="Layer_1" xmlns="http://www.w3.org/2000/svg" xmlns:xlink="http://www.w3.org/1999/xlink" x="0px" y="0px"
	 width="600px" height="800px" viewBox="0 0 600 800" enable-background="new 0 0 600 800" xml:space="preserve">
<g>
	<g id="Layer_2_30_">
		<g>
			<path fill="#FFFFFF" d="M432.34,194.413l20.871-29.471c3.782-5.344,2.522-12.744-2.832-16.539l-31.46-22.281
				c-5.346-3.779-12.753-2.516-16.536,2.828l-21.384,30.188c-15.779-7.383-32.725-12.683-50.483-15.495v-12.285
				c0-7.858,6.432-14.293,14.293-14.293h7.883c7.87,0,14.304-6.437,14.304-14.292V59.301c0-7.866-6.434-14.301-14.304-14.301H248.19
				c-7.857,0-14.288,6.435-14.288,14.301v43.472c0,7.855,6.431,14.292,14.288,14.292h7.896c7.863,0,14.296,6.435,14.296,14.293
				v12.285c-19.037,3.027-37.142,8.875-53.867,17.119l-21.182-29.905c-3.788-5.345-11.194-6.609-16.539-2.821l-31.461,22.274
				c-5.351,3.787-6.612,11.195-2.827,16.538l21.359,30.176c-34.584,34.511-56.003,82.211-56.003,134.821
				c0,105.09,85.499,190.579,190.586,190.579c105.085,0,190.583-85.489,190.583-190.579
				C491.031,277.894,468.492,229.112,432.34,194.413z M300.448,476.688c-79.87,0-144.845-64.979-144.845-144.844
				c0-79.867,64.975-144.846,144.845-144.846c79.865,0,144.847,64.979,144.847,144.846
				C445.295,411.708,380.313,476.688,300.448,476.688z"/>
		</g>
	</g>
	<path fill="#FFFFFF" d="M306.216,234.886c9.369,13.719,9.867,32.418-0.503,48.233c-10.344,15.833-28.618,24.194-46.22,22.996
		c0.576,16.877-8.843,34.021-25.733,43.337c-15.796,8.755-33.923,8.245-47.632,0.372c11.589,60.776,69.345,101.887,130.959,92.324
		c62.954-9.77,106.068-68.723,96.298-131.678c-7.29-46.977-41.975-82.893-85.264-94.045
		C322.819,224.371,315.174,230.837,306.216,234.886z"/>
</g>
<g>
	<path fill="#FFFFFF" d="M67.69,604.653c-2.816,3.872-6.175,6.835-10.076,8.889c-3.902,2.053-8.228,3.079-12.98,3.079
		c-4.224,0-8.14-0.836-11.748-2.508s-6.703-3.9-9.284-6.688c-2.582-2.786-4.606-6.013-6.072-9.681
		c-1.467-3.665-2.2-7.523-2.2-11.571s0.733-7.905,2.2-11.572c1.466-3.666,3.49-6.893,6.072-9.68
		c2.581-2.786,5.676-5.001,9.284-6.645c3.608-1.642,7.524-2.464,11.748-2.464c4.048,0,7.758,0.704,11.132,2.112
		c3.373,1.408,6.321,3.491,8.844,6.248c0.528,0.527,0.792,1.144,0.792,1.848s-0.235,1.291-0.704,1.76
		c-0.47,0.528-1.056,0.792-1.76,0.792c-0.587,0-1.174-0.233-1.76-0.704c-2.347-1.936-4.796-3.563-7.348-4.884
		c-2.552-1.319-5.618-1.979-9.196-1.979c-3.579,0-6.806,0.689-9.68,2.067c-2.875,1.38-5.339,3.242-7.392,5.588
		c-2.054,2.348-3.638,5.031-4.752,8.053c-1.115,3.021-1.672,6.175-1.672,9.46c0,3.286,0.557,6.454,1.672,9.504
		c1.114,3.051,2.698,5.735,4.752,8.052c2.053,2.318,4.517,4.18,7.392,5.588c2.874,1.408,6.101,2.112,9.68,2.112
		c2.288,0,4.356-0.249,6.204-0.748c1.848-0.498,3.534-1.202,5.06-2.112c1.525-0.908,2.933-1.979,4.224-3.212
		c1.29-1.231,2.522-2.581,3.696-4.048c0.528-0.586,1.173-0.88,1.936-0.88c0.704,0,1.261,0.206,1.672,0.616
		c0.585,0.527,0.88,1.144,0.88,1.848S68.1,604.185,67.69,604.653z"/>
	<path fill="#FFFFFF" d="M127.354,578.605c-0.587,1.702-1.408,3.228-2.464,4.576c-1.056,1.351-2.332,2.479-3.828,3.388
		c-1.496,0.91-3.183,1.54-5.06,1.893c0.293,0.646,0.806,1.746,1.54,3.3c0.733,1.555,1.877,3.931,3.432,7.128
		c1.554,3.198,3.709,7.643,6.468,13.332c0.176,0.47,0.264,0.88,0.264,1.231c0,0.471-0.132,0.939-0.396,1.408
		c-0.264,0.471-0.631,0.821-1.1,1.057c-0.352,0.176-0.734,0.264-1.144,0.264c-1.115,0-1.966-0.528-2.552-1.584
		c-2.406-4.986-4.4-9.093-5.984-12.32c-1.584-3.226-2.802-5.72-3.652-7.479c-0.851-1.761-1.482-3.05-1.892-3.872
		c-0.411-0.821-0.675-1.378-0.792-1.672h-21.56v24.111c0,0.822-0.294,1.496-0.88,2.024c-0.587,0.528-1.291,0.792-2.112,0.792
		c-0.822,0-1.496-0.264-2.024-0.792c-0.528-0.528-0.792-1.202-0.792-2.024v-53.68c0-0.821,0.264-1.496,0.792-2.024
		c0.528-0.527,1.202-0.792,2.024-0.792h25.168c2.521,0,4.84,0.367,6.952,1.101c2.112,0.734,3.945,1.804,5.5,3.212
		c1.554,1.408,2.772,3.124,3.652,5.147c0.88,2.024,1.32,4.299,1.32,6.82C128.233,575.086,127.939,576.904,127.354,578.605z
		 M119.345,565.186c-2.054-2.082-4.694-3.124-7.92-3.124H88.633v22.264h22.792c3.226,0,5.866-1.025,7.92-3.08
		c2.053-2.053,3.08-4.722,3.08-8.008C122.425,569.953,121.398,567.269,119.345,565.186z"/>
	<path fill="#FFFFFF" d="M186.885,602.321c-1.027,3.022-2.523,5.588-4.488,7.7c-1.966,2.112-4.356,3.74-7.172,4.884
		c-2.816,1.145-6.014,1.716-9.592,1.716c-3.579,0-6.776-0.571-9.592-1.716c-2.816-1.144-5.207-2.771-7.172-4.884
		c-1.966-2.112-3.476-4.678-4.532-7.7c-1.056-3.021-1.584-6.38-1.584-10.076v-33.264c0-0.82,0.278-1.51,0.836-2.068
		c0.557-0.557,1.246-0.836,2.068-0.836c0.821,0,1.496,0.279,2.024,0.836c0.528,0.559,0.792,1.248,0.792,2.068v34.32
		c0,2.699,0.366,5.163,1.1,7.392c0.732,2.23,1.833,4.136,3.3,5.72c1.466,1.584,3.27,2.816,5.412,3.696
		c2.141,0.88,4.59,1.32,7.348,1.32c2.757,0,5.192-0.44,7.304-1.32s3.886-2.112,5.324-3.696c1.437-1.584,2.521-3.489,3.256-5.72
		c0.733-2.229,1.1-4.692,1.1-7.392v-34.32c0-0.82,0.292-1.51,0.88-2.068c0.585-0.557,1.29-0.836,2.112-0.836
		c0.821,0,1.496,0.279,2.024,0.836c0.528,0.559,0.792,1.248,0.792,2.068v33.264C188.425,595.941,187.911,599.301,186.885,602.321z"
		/>
	<path fill="#FFFFFF" d="M249.848,615.346c-0.528,0.498-1.174,0.776-1.936,0.836c-0.939,0.058-1.672-0.294-2.2-1.056l-34.584-48.576
		v46.903c0,0.764-0.279,1.408-0.836,1.937c-0.559,0.528-1.218,0.792-1.98,0.792c-0.763,0-1.408-0.264-1.936-0.792
		c-0.528-0.528-0.792-1.173-0.792-1.937v-54.56c0-0.704,0.264-1.349,0.792-1.936c0.528-0.586,1.202-0.881,2.024-0.881
		c0.469,0,0.894,0.118,1.276,0.353c0.381,0.235,0.689,0.499,0.924,0.792c0.058,0.059,0.586,0.807,1.584,2.244
		c0.997,1.438,2.376,3.418,4.136,5.939c1.76,2.523,3.709,5.295,5.852,8.316c2.141,3.022,4.37,6.175,6.688,9.46
		c2.317,3.286,4.532,6.396,6.644,9.328c2.112,2.934,4.018,5.574,5.72,7.92c1.701,2.347,2.992,4.107,3.872,5.28v-46.816
		c0-0.762,0.264-1.422,0.792-1.98c0.528-0.557,1.173-0.836,1.936-0.836c0.762,0,1.422,0.279,1.98,0.836
		c0.557,0.559,0.836,1.219,0.836,1.98v54.56C250.64,614.217,250.376,614.848,249.848,615.346z"/>
	<path fill="#FFFFFF" d="M316.639,604.653c-2.816,3.872-6.175,6.835-10.076,8.889c-3.902,2.053-8.228,3.079-12.979,3.079
		c-4.224,0-8.14-0.836-11.748-2.508s-6.703-3.9-9.284-6.688c-2.582-2.786-4.606-6.013-6.072-9.681
		c-1.467-3.665-2.2-7.523-2.2-11.571s0.733-7.905,2.2-11.572c1.466-3.666,3.49-6.893,6.072-9.68
		c2.581-2.786,5.676-5.001,9.284-6.645c3.608-1.642,7.524-2.464,11.748-2.464c4.048,0,7.758,0.704,11.132,2.112
		c3.373,1.408,6.32,3.491,8.844,6.248c0.528,0.527,0.793,1.144,0.793,1.848s-0.236,1.291-0.705,1.76
		c-0.47,0.528-1.056,0.792-1.76,0.792c-0.587,0-1.174-0.233-1.76-0.704c-2.348-1.936-4.796-3.563-7.348-4.884
		c-2.552-1.319-5.619-1.979-9.196-1.979c-3.579,0-6.806,0.689-9.68,2.067c-2.875,1.38-5.339,3.242-7.392,5.588
		c-2.054,2.348-3.638,5.031-4.752,8.053c-1.115,3.021-1.672,6.175-1.672,9.46c0,3.286,0.557,6.454,1.672,9.504
		c1.114,3.051,2.698,5.735,4.752,8.052c2.053,2.318,4.517,4.18,7.392,5.588c2.874,1.408,6.101,2.112,9.68,2.112
		c2.288,0,4.356-0.249,6.204-0.748c1.848-0.498,3.533-1.202,5.06-2.112c1.524-0.908,2.933-1.979,4.224-3.212
		c1.291-1.231,2.522-2.581,3.697-4.048c0.527-0.586,1.172-0.88,1.936-0.88c0.703,0,1.261,0.206,1.672,0.616
		c0.586,0.527,0.88,1.144,0.88,1.848S317.049,604.185,316.639,604.653z"/>
	<path fill="#FFFFFF" d="M376.303,615.346c-0.528,0.557-1.203,0.836-2.024,0.836c-0.822,0-1.511-0.279-2.068-0.836
		s-0.836-1.246-0.836-2.068v-25.08h-33.88v25.08c0,0.822-0.264,1.512-0.792,2.068s-1.203,0.836-2.024,0.836
		c-0.822,0-1.511-0.279-2.067-0.836c-0.559-0.557-0.836-1.246-0.836-2.068v-54.296c0-0.82,0.277-1.51,0.836-2.068
		c0.557-0.557,1.245-0.836,2.067-0.836c0.821,0,1.496,0.279,2.024,0.836c0.528,0.559,0.792,1.248,0.792,2.068v23.937h33.88v-23.937
		c0-0.82,0.278-1.51,0.836-2.068c0.558-0.557,1.246-0.836,2.068-0.836c0.821,0,1.496,0.279,2.024,0.836
		c0.527,0.559,0.791,1.248,0.791,2.068v54.296C377.094,614.1,376.83,614.789,376.303,615.346z"/>
	<path fill="#FFFFFF" d="M435.438,561.401c-0.527,0.499-1.174,0.748-1.936,0.748h-18.48v51.128c0,0.822-0.279,1.512-0.836,2.068
		c-0.559,0.557-1.248,0.836-2.068,0.836c-0.822,0-1.512-0.279-2.068-0.836s-0.836-1.246-0.836-2.068v-51.128h-18.479
		c-0.764,0-1.395-0.249-1.893-0.748c-0.5-0.498-0.748-1.129-0.748-1.892c0-0.762,0.248-1.394,0.748-1.893
		c0.498-0.497,1.129-0.748,1.893-0.748h42.768c0.762,0,1.408,0.251,1.936,0.748c0.527,0.499,0.793,1.131,0.793,1.893
		C436.23,560.272,435.965,560.903,435.438,561.401z"/>
	<path fill="#FFFFFF" d="M452.156,615.346c-0.528,0.557-1.203,0.836-2.024,0.836c-0.822,0-1.511-0.279-2.067-0.836
		c-0.559-0.557-0.836-1.246-0.836-2.068v-54.296c0-0.82,0.277-1.51,0.836-2.068c0.557-0.557,1.245-0.836,2.067-0.836
		c0.821,0,1.496,0.279,2.024,0.836c0.528,0.559,0.792,1.248,0.792,2.068v54.296C452.948,614.1,452.685,614.789,452.156,615.346z"/>
	<path fill="#FFFFFF" d="M526.516,615.39c-0.528,0.528-1.175,0.792-1.937,0.792c-0.763,0-1.407-0.264-1.936-0.792
		s-0.792-1.173-0.792-1.937v-42.855c-0.822,1.643-1.892,3.887-3.212,6.731c-1.32,2.847-2.715,5.896-4.18,9.152
		c-1.468,3.256-2.948,6.556-4.444,9.9c-1.496,3.344-2.847,6.38-4.048,9.107c-1.203,2.729-2.567,5.795-4.092,9.196
		c-0.471,0.997-1.292,1.496-2.465,1.496c-1.231,0-2.054-0.499-2.464-1.496l-19.976-44v42.68c0,0.764-0.279,1.424-0.836,1.98
		c-0.559,0.557-1.219,0.836-1.98,0.836c-0.763,0-1.408-0.279-1.936-0.836c-0.528-0.557-0.792-1.217-0.792-1.98v-54.56
		c0-0.762,0.264-1.408,0.792-1.937c0.527-0.527,1.173-0.792,1.936-0.792c0.646,0,1.173,0.177,1.584,0.528
		c0.41,0.353,0.733,0.764,0.968,1.232l22.704,49.808l22.616-49.896c0.234-0.47,0.572-0.865,1.012-1.188
		c0.44-0.321,0.953-0.484,1.54-0.484c0.762,0,1.408,0.279,1.937,0.836c0.528,0.559,0.792,1.219,0.792,1.98v54.56
		C527.308,614.217,527.044,614.861,526.516,615.39z"/>
	<path fill="#FFFFFF" d="M585.695,614.729c-0.5,0.499-1.131,0.748-1.893,0.748H548.69c-0.822,0-1.511-0.277-2.067-0.836
		c-0.559-0.557-0.836-1.246-0.836-2.068v-52.888c0-0.821,0.277-1.496,0.836-2.024c0.557-0.527,1.245-0.792,2.067-0.792h33.792
		c0.762,0,1.408,0.251,1.937,0.748c0.528,0.499,0.792,1.131,0.792,1.893c0,0.763-0.264,1.394-0.792,1.892
		c-0.528,0.499-1.175,0.748-1.937,0.748h-30.976v20.152h17.512c0.762,0,1.394,0.25,1.893,0.748c0.497,0.499,0.748,1.13,0.748,1.892
		c0,0.764-0.251,1.395-0.748,1.893c-0.499,0.499-1.131,0.747-1.893,0.747h-17.512v22.616h32.296c0.762,0,1.393,0.251,1.893,0.748
		c0.497,0.499,0.748,1.131,0.748,1.893C586.443,613.601,586.192,614.231,585.695,614.729z"/>
	<path fill="#FFFFFF" d="M32.666,720.945c-0.528,0.557-1.203,0.836-2.024,0.836c-0.822,0-1.511-0.279-2.068-0.836
		c-0.559-0.557-0.836-1.246-0.836-2.068v-54.296c0-0.82,0.277-1.51,0.836-2.068c0.557-0.557,1.246-0.836,2.068-0.836
		c0.821,0,1.496,0.279,2.024,0.836c0.528,0.559,0.792,1.248,0.792,2.068v54.296C33.458,719.699,33.193,720.389,32.666,720.945z"/>
	<path fill="#FFFFFF" d="M96.201,720.945c-0.528,0.498-1.174,0.776-1.936,0.836c-0.939,0.058-1.672-0.294-2.2-1.056l-34.584-48.576
		v46.903c0,0.764-0.279,1.408-0.836,1.937c-0.559,0.528-1.218,0.792-1.98,0.792c-0.763,0-1.408-0.264-1.936-0.792
		c-0.528-0.528-0.792-1.173-0.792-1.937v-54.56c0-0.704,0.264-1.349,0.792-1.936c0.528-0.586,1.202-0.881,2.024-0.881
		c0.469,0,0.894,0.118,1.276,0.353c0.381,0.235,0.689,0.499,0.924,0.792c0.058,0.059,0.586,0.807,1.584,2.244
		c0.997,1.438,2.376,3.418,4.136,5.939c1.76,2.523,3.709,5.295,5.852,8.316c2.141,3.022,4.37,6.175,6.688,9.46
		c2.317,3.286,4.532,6.396,6.644,9.328c2.112,2.934,4.018,5.574,5.72,7.92c1.701,2.347,2.992,4.107,3.872,5.28v-46.816
		c0-0.762,0.264-1.422,0.792-1.98c0.528-0.557,1.173-0.836,1.936-0.836c0.762,0,1.422,0.279,1.98,0.836
		c0.557,0.559,0.836,1.219,0.836,1.98v54.56C96.993,719.816,96.729,720.447,96.201,720.945z"/>
	<path fill="#FFFFFF" d="M155.335,667.001c-0.528,0.499-1.174,0.748-1.936,0.748h-18.48v51.128c0,0.822-0.279,1.512-0.836,2.068
		c-0.558,0.557-1.247,0.836-2.068,0.836c-0.822,0-1.511-0.279-2.068-0.836c-0.558-0.557-0.836-1.246-0.836-2.068v-51.128h-18.48
		c-0.763,0-1.394-0.249-1.892-0.748c-0.499-0.498-0.748-1.129-0.748-1.892c0-0.762,0.249-1.394,0.748-1.893
		c0.498-0.497,1.129-0.748,1.892-0.748h42.768c0.762,0,1.408,0.251,1.936,0.748c0.528,0.499,0.792,1.131,0.792,1.893
		C156.127,665.872,155.863,666.503,155.335,667.001z"/>
	<path fill="#FFFFFF" d="M207.035,720.329c-0.499,0.499-1.13,0.748-1.892,0.748h-35.112c-0.822,0-1.511-0.277-2.068-0.836
		c-0.559-0.557-0.836-1.246-0.836-2.068v-52.888c0-0.821,0.277-1.496,0.836-2.024c0.557-0.527,1.246-0.792,2.068-0.792h33.792
		c0.762,0,1.408,0.251,1.936,0.748c0.528,0.499,0.792,1.131,0.792,1.893c0,0.763-0.264,1.394-0.792,1.892
		c-0.528,0.499-1.174,0.748-1.936,0.748h-30.976v20.152h17.512c0.762,0,1.393,0.25,1.892,0.748c0.498,0.499,0.748,1.13,0.748,1.892
		c0,0.764-0.25,1.395-0.748,1.893c-0.499,0.499-1.13,0.747-1.892,0.747h-17.512v22.616h32.296c0.762,0,1.393,0.251,1.892,0.748
		c0.498,0.499,0.748,1.131,0.748,1.893C207.783,719.2,207.532,719.831,207.035,720.329z"/>
	<path fill="#FFFFFF" d="M265.07,684.205c-0.587,1.702-1.408,3.228-2.464,4.576c-1.056,1.351-2.332,2.479-3.828,3.388
		c-1.496,0.91-3.183,1.54-5.06,1.893c0.293,0.646,0.806,1.746,1.54,3.3c0.733,1.555,1.877,3.931,3.432,7.128
		c1.554,3.198,3.709,7.643,6.468,13.332c0.176,0.47,0.264,0.88,0.264,1.231c0,0.471-0.132,0.939-0.396,1.408
		c-0.264,0.471-0.631,0.821-1.1,1.057c-0.352,0.176-0.734,0.264-1.144,0.264c-1.115,0-1.966-0.528-2.552-1.584
		c-2.406-4.986-4.4-9.093-5.984-12.32c-1.584-3.226-2.802-5.72-3.652-7.479c-0.851-1.761-1.482-3.05-1.892-3.872
		c-0.411-0.821-0.675-1.378-0.792-1.672h-21.56v24.111c0,0.822-0.294,1.496-0.88,2.024c-0.587,0.528-1.291,0.792-2.112,0.792
		c-0.822,0-1.496-0.264-2.024-0.792c-0.528-0.528-0.792-1.202-0.792-2.024v-53.68c0-0.821,0.264-1.496,0.792-2.024
		c0.528-0.527,1.202-0.792,2.024-0.792h25.168c2.521,0,4.84,0.367,6.952,1.101c2.112,0.734,3.945,1.804,5.5,3.212
		c1.554,1.408,2.772,3.124,3.652,5.147c0.88,2.024,1.32,4.299,1.32,6.82C265.95,680.686,265.656,682.504,265.07,684.205z
		 M257.062,670.785c-2.054-2.082-4.694-3.124-7.92-3.124H226.35v22.264h22.792c3.226,0,5.866-1.025,7.92-3.08
		c2.053-2.053,3.08-4.722,3.08-8.008C260.142,675.553,259.115,672.868,257.062,670.785z"/>
	<path fill="#FFFFFF" d="M328.606,721.518c-0.353,0.176-0.704,0.264-1.056,0.264c-0.528,0-1.013-0.132-1.453-0.396
		c-0.439-0.264-0.777-0.659-1.012-1.188l-7.392-16.28h-30.008l-7.304,16.192c-0.235,0.47-0.572,0.866-1.012,1.188
		c-0.44,0.322-0.924,0.484-1.452,0.484c-0.411,0-0.792-0.088-1.144-0.264c-1.056-0.47-1.584-1.29-1.584-2.465
		c0-0.176,0-0.352,0-0.527c0-0.234,0.058-0.44,0.176-0.616l24.816-54.56c0.117-0.293,0.41-0.646,0.88-1.057
		c0.469-0.409,1.025-0.616,1.672-0.616c0.645,0,1.188,0.207,1.628,0.616c0.44,0.411,0.718,0.764,0.836,1.057l24.815,54.56
		c0.117,0.176,0.177,0.382,0.177,0.616c0,0.176,0,0.352,0,0.527C330.19,720.228,329.662,721.048,328.606,721.518z M302.734,670.741
		l-12.76,28.16h25.432L302.734,670.741z"/>
	<path fill="#FFFFFF" d="M389.59,710.253c-2.816,3.872-6.175,6.835-10.076,8.889c-3.902,2.053-8.228,3.079-12.979,3.079
		c-4.224,0-8.14-0.836-11.748-2.508s-6.703-3.9-9.284-6.688c-2.582-2.786-4.605-6.013-6.072-9.681
		c-1.467-3.665-2.199-7.523-2.199-11.571s0.732-7.905,2.199-11.572c1.467-3.666,3.49-6.893,6.072-9.68
		c2.581-2.786,5.676-5.001,9.284-6.645c3.608-1.642,7.524-2.464,11.748-2.464c4.048,0,7.758,0.704,11.132,2.112
		c3.373,1.408,6.32,3.491,8.844,6.248c0.528,0.527,0.792,1.144,0.792,1.848s-0.234,1.291-0.704,1.76
		c-0.47,0.528-1.056,0.792-1.76,0.792c-0.587,0-1.174-0.233-1.76-0.704c-2.348-1.936-4.796-3.563-7.348-4.884
		c-2.553-1.319-5.619-1.979-9.196-1.979c-3.579,0-6.806,0.689-9.681,2.067c-2.875,1.38-5.338,3.242-7.392,5.588
		c-2.054,2.348-3.638,5.031-4.752,8.053c-1.115,3.021-1.672,6.175-1.672,9.46c0,3.286,0.557,6.454,1.672,9.504
		c1.114,3.051,2.698,5.735,4.752,8.052c2.054,2.318,4.517,4.18,7.392,5.588s6.102,2.112,9.681,2.112
		c2.288,0,4.356-0.249,6.204-0.748c1.848-0.498,3.533-1.202,5.06-2.112c1.524-0.908,2.933-1.979,4.224-3.212
		c1.291-1.231,2.522-2.581,3.697-4.048c0.527-0.586,1.172-0.88,1.936-0.88c0.704,0,1.261,0.206,1.672,0.616
		c0.586,0.527,0.88,1.144,0.88,1.848S390,709.784,389.59,710.253z"/>
	<path fill="#FFFFFF" d="M444.589,667.001c-0.527,0.499-1.174,0.748-1.936,0.748h-18.479v51.128c0,0.822-0.279,1.512-0.837,2.068
		s-1.247,0.836-2.067,0.836c-0.822,0-1.512-0.279-2.068-0.836c-0.558-0.557-0.836-1.246-0.836-2.068v-51.128h-18.479
		c-0.764,0-1.395-0.249-1.893-0.748c-0.499-0.498-0.748-1.129-0.748-1.892c0-0.762,0.249-1.394,0.748-1.893
		c0.498-0.497,1.129-0.748,1.893-0.748h42.768c0.762,0,1.408,0.251,1.936,0.748c0.528,0.499,0.793,1.131,0.793,1.893
		C445.382,665.872,445.117,666.503,444.589,667.001z"/>
	<path fill="#FFFFFF" d="M461.309,720.945c-0.528,0.557-1.203,0.836-2.024,0.836c-0.822,0-1.511-0.279-2.067-0.836
		c-0.559-0.557-0.836-1.246-0.836-2.068v-54.296c0-0.82,0.277-1.51,0.836-2.068c0.557-0.557,1.245-0.836,2.067-0.836
		c0.821,0,1.496,0.279,2.024,0.836c0.528,0.559,0.792,1.248,0.792,2.068v54.296C462.101,719.699,461.837,720.389,461.309,720.945z"
		/>
	<path fill="#FFFFFF" d="M526.78,665.461l-24.112,54.736c-0.471,1.056-1.291,1.584-2.464,1.584c-1.291,0-2.143-0.528-2.553-1.584
		l-24.199-54.736c-0.118-0.233-0.177-0.586-0.177-1.056c0-0.704,0.234-1.334,0.704-1.893c0.469-0.557,1.114-0.836,1.937-0.836
		c1.173,0,1.993,0.528,2.464,1.584l21.736,49.809l21.823-49.809c0.47-1.056,1.29-1.584,2.465-1.584c0.82,0,1.465,0.279,1.936,0.836
		c0.469,0.559,0.704,1.188,0.704,1.893C527.044,664.757,526.956,665.109,526.78,665.461z"/>
	<path fill="#FFFFFF" d="M578.128,720.329c-0.5,0.499-1.131,0.748-1.893,0.748h-35.112c-0.822,0-1.511-0.277-2.067-0.836
		c-0.559-0.557-0.836-1.246-0.836-2.068v-52.888c0-0.821,0.277-1.496,0.836-2.024c0.557-0.527,1.245-0.792,2.067-0.792h33.792
		c0.762,0,1.408,0.251,1.937,0.748c0.528,0.499,0.792,1.131,0.792,1.893c0,0.763-0.264,1.394-0.792,1.892
		c-0.528,0.499-1.175,0.748-1.937,0.748h-30.976v20.152h17.512c0.762,0,1.394,0.25,1.893,0.748c0.497,0.499,0.748,1.13,0.748,1.892
		c0,0.764-0.251,1.395-0.748,1.893c-0.499,0.499-1.131,0.747-1.893,0.747h-17.512v22.616h32.296c0.762,0,1.393,0.251,1.893,0.748
		c0.497,0.499,0.748,1.131,0.748,1.893C578.876,719.2,578.625,719.831,578.128,720.329z"/>
</g>
</svg>
