<?xml version="1.0" encoding="utf-8"?>
<!-- Generator: Adobe Illustrator 16.0.3, SVG Export Plug-In . SVG Version: 6.00 Build 0)  -->
<!DOCTYPE svg PUBLIC "-//W3C//DTD SVG 1.1//EN" "http://www.w3.org/Graphics/SVG/1.1/DTD/svg11.dtd">
<svg version="1.1" id="Layer_1" xmlns="http://www.w3.org/2000/svg" xmlns:xlink="http://www.w3.org/1999/xlink" x="0px" y="0px"
	 width="60px" height="60px" viewBox="0 0 60 60" enable-background="new 0 0 60 60" xml:space="preserve">
<circle display="none" cx="29.88" cy="29.527" r="27.41"/>
<g>
	<path fill="#FFFFFF" d="M29.5,30.45c-2.445,0-4.5,1.981-4.5,4.427v2.082c0,2.444,2.055,3.542,4.5,3.542s4.5-1.098,4.5-3.542v-2.082
		C34,32.433,31.945,30.45,29.5,30.45z"/>
	<circle fill="#FFFFFF" cx="25.825" cy="20.774" r="1.308"/>
	<path fill="#FFFFFF" d="M26.125,25.517c0,1.588,1.641,2.876,3.665,2.876c2.024,0,3.665-1.288,3.665-2.876s-1.641-2.875-3.665-2.875
		C27.766,22.642,26.125,23.929,26.125,25.517z M29.79,23.337c0.602,0,1.09,0.487,1.09,1.09c0,0.602-0.488,1.09-1.09,1.09
		s-1.09-0.488-1.09-1.09C28.7,23.824,29.188,23.337,29.79,23.337z"/>
	<circle fill="#FFFFFF" cx="33.293" cy="20.775" r="1.308"/>
	<path fill="#FFFFFF" d="M29.88,2.117c-15.139,0-27.411,12.272-27.411,27.41c0,15.139,12.272,27.41,27.411,27.41
		s27.41-12.271,27.41-27.41C57.29,14.389,45.019,2.117,29.88,2.117z M40.099,45.265c-1.964-0.395-2.911-1.056-5.863-2.43
		c-0.509-0.207-1.063-0.185-1.302-0.146c-0.938,0.154-1.971,0.213-3.055,0.213c-0.97,0-1.898-0.047-2.757-0.168
		c-0.286-0.04-0.746-0.188-1.397,0.108c-3.025,1.369-4.071,2.03-6.065,2.422c-1.591,0.313-2.937-1.314-2.937-2.936
		c0-2.666,2.734-2.727,4.64-3.512C22.044,38.396,22,37.938,22,37.61v-4.457c-2-0.309-4.914-0.414-4.914-3.366
		c0-1.5,1.223-2.051,2.714-1.896c1.185,0.122,1.703,0.805,3.753,0.171c0.562-0.174,0.921-0.788,0.548-1.265
		c-1.007-1.286-1.524-2.917-1.609-4.687c-0.034-0.7-0.244-0.863-0.38-0.918c-1.409-0.56-2.408-1.956-2.408-3.59
		c0-2.127,1.694-3.853,3.784-3.853c1.042,0,1.983,0.428,2.667,1.121c0.155,0.157,0.368,0.48,0.682,0.384
		c0.994-0.506,1.856-0.667,3.043-0.667c1.105,0,1.893,0.131,2.834,0.574c0.267,0.115,0.375-0.032,0.436-0.102
		c0.693-0.803,1.709-1.311,2.843-1.311c2.091,0,3.784,1.725,3.784,3.853c0,1.572-0.907,2.962-2.25,3.522
		c-0.262,0.108-0.258,0.693-0.258,0.985c0,1.785-0.59,3.443-1.633,4.715c-0.408,0.497,0.305,1.126,0.561,1.222
		c2.016,0.758,2.574-0.036,3.764-0.156c1.492-0.152,2.834,0.397,2.834,1.896c0,3.034-3.793,3.063-4.793,3.376v4.447
		c0,0.319-0.201,0.827,0.324,1.108c1.9,0.795,4.772,0.944,4.771,3.61C43.095,43.95,41.689,45.585,40.099,45.265z"/>
</g>
</svg>
