<?xml version="1.0" encoding="utf-8"?>
<!-- Generator: Adobe Illustrator 16.0.3, SVG Export Plug-In . SVG Version: 6.00 Build 0)  -->
<!DOCTYPE svg PUBLIC "-//W3C//DTD SVG 1.1//EN" "http://www.w3.org/Graphics/SVG/1.1/DTD/svg11.dtd">
<svg version="1.1" id="Layer_1" xmlns="http://www.w3.org/2000/svg" xmlns:xlink="http://www.w3.org/1999/xlink" x="0px" y="0px"
	 width="60px" height="60px" viewBox="0 0 60 60" enable-background="new 0 0 60 60" xml:space="preserve">
<circle display="none" cx="29.88" cy="29.527" r="27.41"/>
<g display="none">
	<path display="inline" fill="#FFFFFF" d="M29.5,30.45c-2.445,0-4.5,1.981-4.5,4.427v2.082c0,2.444,2.055,3.542,4.5,3.542
		s4.5-1.098,4.5-3.542v-2.082C34,32.433,31.945,30.45,29.5,30.45z"/>
	<circle display="inline" fill="#FFFFFF" cx="25.825" cy="20.774" r="1.308"/>
	<path display="inline" fill="#FFFFFF" d="M26.125,25.517c0,1.588,1.641,2.876,3.665,2.876c2.024,0,3.665-1.288,3.665-2.876
		s-1.641-2.875-3.665-2.875C27.766,22.642,26.125,23.929,26.125,25.517z M29.79,23.337c0.602,0,1.09,0.487,1.09,1.09
		c0,0.602-0.488,1.09-1.09,1.09s-1.09-0.488-1.09-1.09C28.7,23.824,29.188,23.337,29.79,23.337z"/>
	<circle display="inline" fill="#FFFFFF" cx="33.293" cy="20.775" r="1.308"/>
	<path display="inline" fill="#FFFFFF" d="M29.88,2.117c-15.139,0-27.411,12.272-27.411,27.41c0,15.139,12.272,27.41,27.411,27.41
		s27.41-12.271,27.41-27.41C57.29,14.389,45.019,2.117,29.88,2.117z M40.099,45.265c-1.964-0.395-2.911-1.056-5.863-2.43
		c-0.509-0.207-1.063-0.185-1.302-0.146c-0.938,0.154-1.971,0.213-3.055,0.213c-0.97,0-1.898-0.047-2.757-0.168
		c-0.286-0.04-0.746-0.188-1.397,0.108c-3.025,1.369-4.071,2.03-6.065,2.422c-1.591,0.313-2.937-1.314-2.937-2.936
		c0-2.666,2.734-2.727,4.64-3.512C22.044,38.396,22,37.938,22,37.61v-4.457c-2-0.309-4.914-0.414-4.914-3.366
		c0-1.5,1.223-2.051,2.714-1.896c1.185,0.122,1.703,0.805,3.753,0.171c0.562-0.174,0.921-0.788,0.548-1.265
		c-1.007-1.286-1.524-2.917-1.609-4.687c-0.034-0.7-0.244-0.863-0.38-0.918c-1.409-0.56-2.408-1.956-2.408-3.59
		c0-2.127,1.694-3.853,3.784-3.853c1.042,0,1.983,0.428,2.667,1.121c0.155,0.157,0.368,0.48,0.682,0.384
		c0.994-0.506,1.856-0.667,3.043-0.667c1.105,0,1.893,0.131,2.834,0.574c0.267,0.115,0.375-0.032,0.436-0.102
		c0.693-0.803,1.709-1.311,2.843-1.311c2.091,0,3.784,1.725,3.784,3.853c0,1.572-0.907,2.962-2.25,3.522
		c-0.262,0.108-0.258,0.693-0.258,0.985c0,1.785-0.59,3.443-1.633,4.715c-0.408,0.497,0.305,1.126,0.561,1.222
		c2.016,0.758,2.574-0.036,3.764-0.156c1.492-0.152,2.834,0.397,2.834,1.896c0,3.034-3.793,3.063-4.793,3.376v4.447
		c0,0.319-0.201,0.827,0.324,1.108c1.9,0.795,4.772,0.944,4.771,3.61C43.095,43.95,41.689,45.585,40.099,45.265z"/>
</g>
<path fill="#FFFFFF" d="M29.88,2.117c-15.139,0-27.411,12.272-27.411,27.41c0,15.139,12.272,27.41,27.411,27.41
	s27.41-12.271,27.41-27.41C57.29,14.389,45.019,2.117,29.88,2.117z M48,19.435c0-0.008-0.136,0.022-0.143,0.045
	c-0.074,0.273-0.294,0.522-0.479,0.733c-0.194,0.223-0.419,0.411-0.707,0.513c-0.168,0.06-0.327,0.141-0.492,0.208
	c-0.334,0.135-0.663,0.28-1.014,0.369c-0.141,0.035-0.285,0.058-0.421,0.104c-0.209,0.071-0.413,0.155-0.593,0.29
	c-0.088,0.066-0.144,0.15-0.185,0.246c-0.091,0.219-0.121,0.447-0.107,0.686c0.019,0.347,0.028,0.695,0.024,1.042
	c-0.002,0.176-0.044,0.353-0.067,0.529c-0.016,0.125-0.029,0.251-0.046,0.376c-0.052,0.396-0.155,0.776-0.347,1.129
	c-0.082,0.154-0.164,0.312-0.268,0.452c-0.144,0.196-0.284,0.395-0.451,0.574c-0.168,0.18-0.346,0.352-0.525,0.519
	c-0.015,0.013-0.031,0.024-0.047,0.036c-0.089,0.07-0.177,0.142-0.268,0.21c-0.108,0.081-0.22,0.158-0.328,0.239
	c-0.082,0.062-0.162,0.127-0.245,0.19c-0.049,0.037-0.104,0.066-0.151,0.105c-0.186,0.154-0.389,0.283-0.6,0.397
	c-0.097,0.053-0.197,0.097-0.298,0.144c-0.21,0.1-0.421,0.202-0.634,0.297c-0.21,0.095-0.422,0.184-0.635,0.273
	c-0.151,0.064-0.304,0.128-0.457,0.191c-0.149,0.061-0.299,0.124-0.451,0.181c-0.074,0.028-0.153,0.048-0.232,0.068
	c-0.153,0.039-0.307,0.081-0.461,0.112c-0.14,0.029-0.283,0.042-0.424,0.069c-0.102,0.019-0.201,0.043-0.301,0.074
	c-0.157,0.049-0.311,0.114-0.47,0.153c-0.237,0.059-0.445,0.175-0.646,0.306c-0.112,0.074-0.216,0.167-0.309,0.265
	c-0.225,0.241-0.48,0.434-0.771,0.585c-0.086,0.044-0.175,0.085-0.264,0.124c-0.137,0.062-0.277,0.107-0.424,0.137
	c-0.086,0.019-0.084,0.027-0.091,0.111c-0.016,0.203-0.031,0.407-0.054,0.609c-0.008,0.073-0.035,0.144-0.051,0.216
	c-0.007,0.027-0.007,0.056-0.01,0.087c0.021,0.003,0.033,0.007,0.047,0.006c0.186-0.014,0.368,0.02,0.551,0.045
	c0.119,0.016,0.236,0.063,0.348,0.111c0.113,0.047,0.218,0.114,0.326,0.173c0.176,0.095,0.301,0.245,0.428,0.392
	c0.086,0.098,0.162,0.203,0.243,0.304c0.097,0.12,0.166,0.255,0.22,0.397c0.044,0.115,0.09,0.23,0.125,0.348
	c0.044,0.148,0.07,0.303,0.121,0.448c0.072,0.216,0.092,0.446,0.203,0.648c0.016,0.028,0.037,0.052,0.055,0.078
	c0.027,0.04,0.054,0.079,0.08,0.118c0.011,0.016,0.02,0.033,0.029,0.049c0.025,0.037,0.057,0.072,0.07,0.112
	c0.016,0.044,0.034,0.065,0.082,0.064c0.021-0.001,0.052,0.001,0.064,0.015c0.074,0.082,0.182,0.082,0.273,0.115
	c0.084,0.03,0.137,0.082,0.164,0.165c0.006,0.022,0.014,0.046,0.025,0.063c0.041,0.056,0.048,0.118,0.058,0.183
	c0.021,0.129,0.014,0.256-0.017,0.385c-0.012,0.051,0.014,0.111,0.027,0.166c0.025,0.117,0.013,0.232-0.008,0.348
	c-0.017,0.104-0.006,0.203,0.021,0.305c0.024-0.002,0.042-0.007,0.061-0.006c0.065,0.008,0.126,0.009,0.183-0.034
	c0.02-0.015,0.057-0.009,0.086-0.008c0.096,0.003,0.117-0.013,0.137-0.107c0.004-0.019,0.019-0.04,0.035-0.049
	c0.01-0.005,0.035,0.01,0.047,0.022c0.123,0.133,0.106,0.396-0.033,0.519c-0.027,0.024-0.027,0.024-0.035,0.112
	c-0.006,0.004-0.012,0.011-0.016,0.01c-0.119-0.01-0.227,0.034-0.334,0.076c-0.035,0.014-0.065,0.016-0.101-0.008
	c-0.024-0.016-0.062-0.014-0.096-0.021c-0.009,0.021-0.023,0.038-0.023,0.056c0,0.152-0.021,0.304,0.042,0.456
	c0.06,0.147,0.116,0.295,0.184,0.439c0.029,0.061,0.051,0.128,0.069,0.193c0.007,0.022,0,0.054-0.003,0.079
	c-0.002,0.028-0.013,0.063-0.01,0.092c0.017,0.16-0.085,0.256-0.205,0.321c-0.073,0.041-0.158,0.085-0.243,0.075
	c-0.036-0.005-0.058,0.051-0.085,0.076C36.67,39.852,36.561,40,36.438,40c-0.007,0-0.014,0-0.02,0c-0.078,0-0.163-0.108-0.232-0.082
	c-0.064,0.023-0.11-0.001-0.168,0.046c-0.103,0.082-0.223,0.095-0.35,0.078c-0.104-0.013-0.2-0.024-0.3,0.025
	c-0.068,0.034-0.157,0.008-0.237,0.011c-0.105,0.003-0.211-0.059-0.316-0.066C34.729,40.004,34.662,40,34.615,40
	c-0.019,0-0.038,0-0.059,0c-0.006,0-0.023,0.029-0.02-0.006c0.011-0.119,0.028-0.132,0.045-0.258
	c-0.082-0.063-0.184-0.022-0.277-0.008c-0.104,0.016-0.203,0.019-0.309-0.004c-0.082-0.019-0.172-0.008-0.26-0.002
	c-0.021,0.002-0.039,0.036-0.061,0.052c-0.015,0.01-0.035,0.018-0.051,0.016c-0.011-0.002-0.024-0.023-0.025-0.037
	c-0.006-0.134,0-0.266,0.068-0.388c0.057-0.103,0.127-0.194,0.227-0.262c-0.002-0.006-0.004-0.013-0.005-0.02
	c-0.054-0.006-0.108-0.019-0.163-0.016c-0.029,0.002-0.063,0.02-0.076-0.013c-0.009-0.022-0.004-0.06,0.01-0.079
	c0.07-0.098,0.146-0.191,0.219-0.285c0.016-0.018,0.034-0.03,0.051-0.047c0.02-0.02,0.047-0.039,0.013-0.068
	c0.019-0.121,0.06-0.229,0.144-0.32c0.079-0.086,0.176-0.092,0.275-0.077c0.091,0.014,0.16-0.04,0.24-0.058
	c0.021-0.005,0.035-0.046,0.055-0.072c0.057-0.01,0.117-0.022,0.178-0.029c0.053-0.005,0.113,0.012,0.16-0.008
	c0.047-0.018,0.078-0.074,0.122-0.105c0.024-0.018,0.061-0.02,0.092-0.023c0.049-0.004,0.077-0.024,0.088-0.074
	c0.029-0.129,0.062-0.258,0.093-0.387c0.003-0.016,0.004-0.033,0.001-0.048c-0.029-0.14-0.034-0.284-0.106-0.412
	c-0.01-0.019-0.02-0.042-0.036-0.054c-0.071-0.051-0.144-0.098-0.218-0.145c-0.084-0.055-0.172-0.104-0.254-0.16
	c-0.111-0.073-0.221-0.148-0.328-0.227c-0.104-0.076-0.208-0.152-0.31-0.234c-0.097-0.076-0.189-0.157-0.283-0.237
	c-0.015-0.013-0.028-0.03-0.04-0.047c-0.021-0.03-0.042-0.062-0.063-0.092c-0.183,0.124-0.311,0.285-0.417,0.464
	c-0.098,0.164-0.184,0.335-0.27,0.505c-0.036,0.071-0.089,0.125-0.148,0.175c-0.018,0.016-0.037,0.041-0.037,0.063
	c-0.004,0.153-0.062,0.296-0.082,0.445c-0.013,0.1-0.043,0.194,0.027,0.283c0.003,0.006,0.001,0.014,0.003,0.02
	s0.006,0.011,0.015,0.027c0.027-0.008,0.057-0.017,0.086-0.025c0.066-0.018,0.092,0.009,0.077,0.076
	c-0.007,0.027-0.013,0.059-0.03,0.08c-0.043,0.052-0.021,0.101,0.004,0.145c0.027,0.047,0.08,0.043,0.123,0.032
	c0.057-0.013,0.109-0.04,0.164-0.056c0.025-0.008,0.059-0.016,0.08-0.006c0.014,0.008,0.021,0.047,0.018,0.068
	c-0.047,0.23-0.156,0.416-0.386,0.509c-0.034,0.013-0.078,0.02-0.113,0.013c-0.07-0.016-0.134-0.005-0.198,0.02
	c-0.116,0.045-0.224,0.021-0.338-0.029c-0.109-0.047-0.133-0.144-0.18-0.229c-0.008-0.014-0.012-0.029-0.018-0.048
	c-0.078-0.004-0.154-0.003-0.224-0.052c-0.019-0.014-0.058-0.008-0.084,0c-0.071,0.021-0.128-0.004-0.178-0.051
	c-0.071-0.066-0.131-0.143-0.171-0.232c-0.027-0.063-0.051-0.125-0.07-0.19c-0.014-0.046-0.073-0.093-0.123-0.112
	c-0.106-0.041-0.143-0.122-0.164-0.222c-0.017-0.077-0.02-0.163-0.096-0.216c-0.013-0.009-0.022-0.037-0.018-0.051
	c0.018-0.049-0.005-0.082-0.029-0.116c-0.066-0.098-0.108-0.198-0.065-0.319c0.016-0.045,0.025-0.094,0.032-0.141
	c0.004-0.024-0.003-0.051-0.009-0.074c-0.02-0.08-0.041-0.156-0.014-0.24c0.008-0.025-0.002-0.057-0.002-0.085
	c-0.001-0.12,0-0.239,0.013-0.353c0.019-0.033,0.037-0.068,0.056-0.103c0.033-0.063,0.065-0.12,0.136-0.157
	c0.07-0.035,0.127-0.098,0.19-0.147c0.098-0.078,0.197-0.155,0.297-0.233c0.014-0.01,0.027-0.019,0.039-0.029
	c0.113-0.098,0.227-0.195,0.336-0.297c0.041-0.037,0.072-0.086,0.113-0.137c-0.039-0.023-0.068-0.036-0.094-0.055
	c-0.044-0.033-0.1-0.061-0.126-0.104c-0.048-0.082-0.124-0.095-0.203-0.113c-0.04-0.01-0.082-0.02-0.119-0.036
	c-0.063-0.03-0.128-0.044-0.197-0.044c-0.136,0.001-0.254-0.041-0.347-0.143c-0.007-0.008-0.013-0.018-0.021-0.02
	c-0.124-0.021-0.209-0.113-0.31-0.175c-0.127-0.079-0.217-0.196-0.268-0.336c-0.037-0.101-0.092-0.166-0.196-0.192
	c-0.1-0.025-0.189-0.08-0.296-0.092c-0.062-0.008-0.119-0.049-0.178-0.076c-0.035-0.016-0.069-0.035-0.104-0.051
	c-0.072-0.031-0.125-0.047-0.201,0.029c-0.122,0.124-0.285,0.189-0.468,0.172c-0.123-0.012-0.225-0.078-0.328-0.14
	c-0.146-0.086-0.293-0.164-0.449-0.231c-0.223-0.094-0.453-0.104-0.687-0.117c-0.202-0.012-0.403,0-0.603,0.01
	c-0.156,0.007-0.31,0.031-0.466,0.039c-0.166,0.01-0.332,0.008-0.498,0.011c-0.106,0.002-0.212,0.005-0.319,0.003
	c-0.27-0.006-0.539-0.01-0.808-0.02c-0.247-0.01-0.493-0.022-0.74-0.042c-0.088-0.007-0.174-0.038-0.28-0.062
	c-0.08,0.057-0.178,0.125-0.275,0.197c-0.016,0.012-0.036,0.031-0.04,0.049c-0.021,0.104-0.098,0.145-0.186,0.181
	c-0.074,0.03-0.151,0.063-0.213,0.111c-0.117,0.092-0.228,0.193-0.313,0.317c-0.013,0.02-0.025,0.043-0.043,0.053
	c-0.164,0.08-0.314,0.198-0.506,0.205c-0.113,0.004-0.228,0.01-0.338-0.006c-0.144-0.021-0.246-0.115-0.307-0.244
	c-0.016-0.033-0.002-0.08-0.002-0.121c0.023-0.006,0.037-0.016,0.047-0.013c0.104,0.036,0.214,0.022,0.321,0.04
	c0.102,0.018,0.207,0.014,0.297-0.053c0.019-0.016,0.048-0.018,0.072-0.021c0.042-0.008,0.083-0.015,0.111-0.055
	c-0.11-0.074-0.236-0.064-0.357-0.074c-0.08-0.006-0.146-0.022-0.182-0.104c-0.01-0.022-0.034-0.039-0.051-0.059
	c-0.05-0.061-0.07-0.131-0.05-0.221c0.029-0.001,0.061-0.007,0.091-0.004c0.058,0.006,0.112,0.025,0.172,0.004
	c0.02-0.006,0.048,0.012,0.072,0.021c0.073,0.028,0.145,0.057,0.226,0.029c0.027-0.01,0.059-0.002,0.087-0.006
	c0.035-0.006,0.081-0.005,0.101-0.026c0.059-0.062,0.14-0.085,0.202-0.139c0.076-0.063,0.174-0.067,0.264-0.091
	c0.102-0.027,0.18-0.084,0.258-0.164c-0.05-0.019-0.091-0.032-0.132-0.047c-0.097-0.036-0.198-0.064-0.289-0.111
	c-0.135-0.068-0.265-0.148-0.394-0.23c-0.101-0.063-0.191-0.145-0.293-0.207c-0.168-0.103-0.342-0.196-0.514-0.293
	c-0.027-0.016-0.053-0.031-0.08-0.047c-0.048-0.004-0.093-0.012-0.137-0.025c0.015,0.067,0.006,0.124-0.057,0.163
	c-0.061,0.037-0.123,0.051-0.189,0.026c-0.045,0.029-0.062,0.065-0.072,0.119c-0.011,0.051-0.034,0.1-0.067,0.143
	c-0.046,0.06-0.069,0.115-0.063,0.198c0.001,0.022,0.018,0.052-0.003,0.07C20.916,32.564,21,32.609,21,32.665
	c0,0.003,0,0.007,0,0.01c0,0.14-0.075,0.273-0.106,0.407c-0.02,0.084-0.156,0.102-0.227,0.052c-0.013-0.01-0.028-0.019-0.036-0.032
	c-0.05-0.079-0.105-0.156-0.144-0.24c-0.025-0.055-0.024-0.119,0.007-0.18c0.015-0.027,0.02-0.063,0.02-0.094
	c0-0.109,0.032-0.212,0.071-0.311c0.02-0.051,0.056-0.094,0.093-0.152c-0.063,0.021-0.109,0.043-0.117,0.1
	c-0.01,0.07-0.066,0.104-0.11,0.143c-0.017,0.016-0.065,0.014-0.089,0c-0.087-0.051-0.163-0.234-0.144-0.332
	c0.013-0.067,0.051-0.108,0.114-0.135c0.05-0.02,0.096-0.049,0.144-0.074c0.095-0.049,0.188-0.1,0.284-0.146
	c0.044-0.023,0.078-0.047,0.094-0.102c0.011-0.04,0.049-0.072,0.082-0.119c-0.018-0.018-0.044-0.043-0.071-0.07
	c-0.119-0.119-0.24-0.236-0.355-0.359c-0.029-0.031-0.058-0.083-0.052-0.121c0.011-0.09-0.028-0.164-0.048-0.243
	c-0.042-0.17-0.091-0.338-0.136-0.507c-0.004-0.019-0.011-0.042-0.004-0.057c0.034-0.068-0.002-0.119-0.038-0.169
	c-0.03-0.042-0.068-0.078-0.101-0.119c-0.094-0.114-0.178-0.237-0.297-0.331c-0.11-0.086-0.165-0.215-0.229-0.334
	c-0.021-0.037-0.04-0.075-0.058-0.113c-0.019-0.04-0.046-0.066-0.084-0.089c-0.096-0.058-0.184-0.136-0.213-0.242
	c-0.025-0.087-0.006-0.188-0.003-0.283c0.001-0.019,0.023-0.037,0.036-0.055c-0.022-0.056-0.071-0.076-0.115-0.102
	c-0.03-0.019-0.061-0.039-0.092-0.054c-0.054-0.025-0.084-0.057-0.061-0.12c0.003-0.008-0.011-0.022-0.022-0.042
	c-0.048,0.05-0.098,0.043-0.148,0.01c-0.09-0.062-0.171-0.036-0.246,0.027c-0.163,0.137-0.347,0.242-0.533,0.34
	c-0.143,0.076-0.301,0.116-0.462,0.146c-0.129,0.025-0.256,0.018-0.385,0.009c-0.1-0.006-0.2,0.009-0.301,0.013
	c-0.093,0.003-0.186,0.004-0.279,0.005c-0.042,0-0.084,0-0.127-0.003c-0.146-0.011-0.29-0.031-0.435-0.035
	c-0.12-0.003-0.241,0.004-0.359,0.021c-0.141,0.02-0.278,0.061-0.419,0.08c-0.101,0.013-0.206,0.023-0.308-0.016
	c-0.029-0.012-0.065-0.005-0.095-0.014c-0.065-0.02-0.128-0.044-0.207-0.072c-0.132,0.06-0.281,0.125-0.426,0.195
	c-0.19,0.091-0.377,0.187-0.566,0.28c-0.02,0.01-0.043,0.016-0.064,0.024c-0.082,0.031-0.162-0.032-0.252,0.006
	c-0.077,0.031-0.173,0.02-0.26,0.02c-0.144,0-0.269-0.071-0.398-0.121c-0.103-0.041-0.206-0.087-0.302-0.14
	c-0.056-0.031-0.107-0.078-0.156-0.12c-0.02-0.017-0.04-0.042-0.06-0.058c-0.068-0.059-0.127-0.126-0.113-0.221
	C12.094,28.377,12,28.347,12,28.32c0-0.046,0-0.092,0-0.137c0-0.026,0.079-0.068,0.071-0.112c-0.015-0.085,0.036-0.167,0.052-0.249
	c0.011-0.061,0.039-0.102,0.106-0.109c0.015-0.001,0.028-0.015,0.047-0.027c-0.004-0.148,0.036-0.29,0.092-0.442
	c0.026,0.013,0.044,0.029,0.058,0.049c0.01,0.006,0.017,0.016,0.018,0.029c0.026,0.052,0.037,0.113,0.079,0.153
	c0.001-0.008,0.004-0.016,0.007-0.022c0.004-0.018,0.007-0.033,0.011-0.047c-0.009-0.028,0.001-0.055,0.02-0.073
	c0.015-0.049,0.031-0.067,0.074-0.113c0.034,0.071,0.066,0.138,0.098,0.205c0.004-0.001,0.008-0.003,0.013-0.004
	c-0.006-0.073-0.018-0.146-0.018-0.219c0-0.017,0.001-0.034,0.004-0.051c0.005-0.027,0.013-0.054,0.021-0.08
	c0.006-0.017,0.031-0.033,0.05-0.036c0.011-0.002,0.032,0.02,0.041,0.035c0.038,0.072,0.072,0.146,0.111,0.217
	c0.016,0.029,0.021,0.071,0.08,0.075c0.004-0.034,0.004-0.068,0.012-0.1c0.016-0.056,0.03-0.112,0.057-0.163
	c0.023-0.044,0.065-0.038,0.09,0.006c0.02,0.036,0.037,0.073,0.056,0.11c0.007-0.004,0.013-0.009,0.018-0.015
	c-0.002-0.023,0.004-0.045,0.022-0.062c0.005-0.036,0.009-0.073,0.054-0.088c0.02,0.034,0.039,0.067,0.058,0.1
	c-0.003-0.04-0.012-0.08-0.019-0.12c-0.003-0.007-0.004-0.016-0.004-0.023c-0.006-0.044-0.008-0.09,0.007-0.139
	c0.045,0.011,0.07,0.041,0.093,0.073c0.003,0.001,0.006,0.003,0.009,0.005c0.024,0.019,0.048,0.037,0.073,0.056
	c-0.009-0.039-0.017-0.074-0.024-0.109c-0.009-0.047-0.013-0.093-0.005-0.137c0-0.006,0.002-0.013,0.003-0.019
	c0.007-0.027,0.018-0.054,0.034-0.079c0.011-0.017,0.033-0.039,0.048-0.038c0.016,0.001,0.035,0.026,0.042,0.044
	c0.021,0.05,0.035,0.083,0.047,0.106c0.018,0.023,0.036,0.046,0.054,0.07c0.01,0.009,0.022,0.02,0.037,0.032
	c0.038-0.008,0.055-0.023,0.056-0.06c0-0.001-0.001-0.002-0.002-0.003c-0.014-0.023-0.013-0.046-0.004-0.065
	c-0.004-0.051-0.004-0.104,0.028-0.156c0.073,0.02,0.085,0.095,0.143,0.146c0.041-0.083-0.017-0.191,0.091-0.246
	c0.022,0.025,0.049,0.057,0.09,0.105c0-0.076,0.001-0.136,0-0.196c-0.002-0.065,0.038-0.114,0.057-0.175
	c0.058,0.019,0.081,0.063,0.104,0.105c0.005,0.006,0.009,0.013,0.012,0.021c0.01,0.018,0.021,0.034,0.035,0.047
	c0.013-0.01,0.027-0.023,0.043-0.03c0.069-0.032,0.154-0.03,0.208-0.093c0.049-0.056,0.092-0.116,0.138-0.175
	c0.075-0.098,0.159-0.19,0.265-0.253c0.068-0.041,0.148-0.07,0.226-0.084c0.146-0.026,0.295-0.037,0.445-0.055
	c0.026-0.081,0.049-0.167,0.082-0.251c0.035-0.087,0.079-0.169,0.093-0.264c0.022-0.146,0.012-0.291-0.011-0.436
	c-0.003-0.018-0.017-0.035-0.034-0.069c-0.02,0.045-0.036,0.078-0.049,0.111c-0.023,0.061-0.043,0.122-0.067,0.182
	c-0.002,0.007-0.006,0.015-0.009,0.021c-0.006,0.076-0.109,0.087-0.138,0.032c-0.003-0.004-0.006-0.009-0.009-0.014
	c-0.018-0.036-0.027-0.079-0.038-0.119c-0.009-0.033-0.016-0.065-0.024-0.102c-0.002-0.005-0.003-0.011-0.005-0.017
	c-0.036,0.029-0.067,0.054-0.101,0.08c-0.078-0.068-0.05-0.164-0.085-0.245c-0.044,0.008-0.088,0.021-0.132,0.022
	c-0.044,0.001-0.089-0.007-0.144-0.013c-0.009,0.076-0.019,0.143-0.024,0.209c-0.006,0.068-0.005,0.136-0.087,0.167
	c-0.004,0.001-0.008,0.006-0.011,0.011c-0.004,0.04-0.021,0.147-0.032,0.154c-0.006,0.008-0.068-0.137-0.068-0.137
	c-0.005-0.031-0.015-0.062-0.03-0.09c-0.018-0.018-0.033-0.038-0.047-0.058c-0.015-0.012-0.032-0.024-0.049-0.039
	c-0.026,0.045-0.044,0.08-0.065,0.111c-0.03,0.045-0.063,0.051-0.092,0.007c-0.031-0.047-0.054-0.102-0.072-0.157
	c-0.002-0.008-0.004-0.016-0.006-0.023c-0.014-0.038-0.027-0.075-0.041-0.112c-0.013,0.002-0.022,0.007-0.03,0.014
	c-0.003,0.063-0.006,0.126-0.01,0.189c0.001,0.01,0.002,0.021,0.004,0.031c0.006,0.041,0.021,0.076-0.031,0.096
	c-0.069,0.028-0.124,0.025-0.147-0.025c-0.034-0.073-0.06-0.15-0.084-0.227c-0.009-0.029-0.017-0.059-0.026-0.089
	c-0.008-0.021-0.016-0.042-0.021-0.064c-0.006-0.018-0.014-0.035-0.022-0.052c-0.023,0.078-0.048,0.156-0.07,0.235
	c-0.019,0.072-0.032,0.146-0.055,0.217c-0.008,0.023-0.036,0.04-0.054,0.059c-0.02-0.02-0.051-0.036-0.056-0.059
	c-0.001-0.004-0.002-0.008-0.002-0.013c-0.012-0.012-0.02-0.028-0.02-0.048c-0.001-0.017-0.002-0.034-0.003-0.052
	c-0.014-0.067-0.026-0.135-0.04-0.202c-0.003-0.016-0.004-0.032-0.01-0.071c-0.035,0.051-0.059,0.088-0.085,0.122
	c-0.036,0.046-0.068,0.042-0.097-0.007c-0.004-0.006-0.007-0.012-0.01-0.018c-0.009-0.008-0.016-0.02-0.019-0.035
	c-0.002-0.008-0.003-0.016-0.005-0.023c-0.022-0.07-0.025-0.144-0.029-0.217c-0.003-0.069-0.004-0.069-0.057-0.116
	c-0.077,0.085-0.137,0.178-0.162,0.293c-0.016,0.076-0.038,0.151-0.063,0.224c-0.006,0.02-0.035,0.045-0.052,0.044
	c-0.019-0.001-0.047-0.026-0.053-0.046c-0.015-0.053-0.023-0.108-0.028-0.163c-0.008-0.091-0.012-0.183-0.018-0.296
	c-0.025,0.06-0.05,0.119-0.074,0.177c-0.002,0.006-0.005,0.011-0.008,0.016c-0.005,0.027-0.009,0.055-0.019,0.081
	c-0.009,0.021-0.032,0.037-0.049,0.055c-0.017-0.017-0.043-0.03-0.05-0.05c-0.022-0.064-0.039-0.131-0.054-0.197
	c-0.013-0.053-0.021-0.106-0.035-0.16c-0.016,0.042-0.032,0.083-0.049,0.124c-0.001,0.003-0.002,0.006-0.004,0.009
	c-0.009,0.05-0.016,0.1-0.037,0.146c-0.07-0.02-0.07-0.02-0.142-0.27c-0.023,0.008-0.045,0.017-0.067,0.025
	c-0.058-0.051-0.06-0.051-0.086-0.153c-0.056,0.024-0.09,0.001-0.104-0.057c-0.013-0.053-0.036-0.105-0.052-0.159
	c-0.003-0.009-0.009-0.022-0.016-0.028c-0.103-0.099-0.102-0.239-0.141-0.359C12.076,23.518,12,23.459,12,23.4
	c0-0.039,0-0.078,0-0.117c0-0.118,0.175-0.253,0.303-0.335c0.021-0.013,0.065-0.039,0.084-0.057
	c0.022-0.021,0.048-0.039,0.071-0.059c0.05-0.041,0.1-0.081,0.149-0.122c0.133-0.11,0.271-0.211,0.429-0.282
	c0.054-0.024,0.106-0.054,0.162-0.077c0.013-0.005,0.034,0.008,0.058,0.015c0.068-0.126,0.179-0.215,0.296-0.305
	c0.092-0.071,0.202-0.113,0.289-0.193c0.025-0.023,0.07-0.029,0.108-0.035c0.07-0.011,0.141-0.018,0.211-0.024
	c0.064-0.005,0.129-0.007,0.193-0.012c0.048-0.003,0.096-0.01,0.144-0.014c0.062-0.004,0.124-0.013,0.185-0.008
	c0.136,0.009,0.269,0.009,0.403-0.027c0.049-0.014,0.111-0.003,0.163,0.012c0.083,0.025,0.16,0.009,0.239-0.012
	c0.05-0.013,0.1-0.03,0.15-0.037c0.16-0.02,0.287-0.115,0.426-0.182c0.037-0.018,0.064-0.062,0.089-0.099
	c0.086-0.128,0.084-0.128,0.233-0.111c0.041-0.049,0.083-0.099,0.124-0.149c0.048-0.059,0.05-0.061,0.136-0.027
	c0.055-0.073,0.115-0.142,0.13-0.241c0.01-0.07,0.042-0.132,0.117-0.154c0.065-0.02,0.129,0.012,0.192,0.09
	c0.104-0.039,0.21-0.077,0.315-0.118c0.069-0.027,0.125-0.021,0.192,0.021c0.047,0.029,0.117,0.033,0.175,0.03
	c0.102-0.006,0.199-0.006,0.292,0.042c0.013,0.007,0.031,0.005,0.047,0.005c0.098,0.002,0.195-0.001,0.292,0.007
	c0.095,0.008,0.188,0.024,0.271,0.083c0.053,0.036,0.12,0.05,0.178,0.079c0.037,0.018,0.077,0.039,0.103,0.069
	c0.055,0.064,0.122,0.105,0.199,0.134c0.055,0.021,0.11,0.037,0.136,0.101c0.007,0.018,0.042,0.03,0.065,0.036
	c0.062,0.013,0.118,0.04,0.168,0.075c0.081,0.025,0.158,0.056,0.231,0.094c0.042,0.013,0.082,0.03,0.119,0.057
	c0.017,0.012,0.044,0.013,0.066,0.01c0.073-0.009,0.132,0.022,0.194,0.053c0.043,0.021,0.076,0.048,0.088,0.097
	c0.015,0.058,0.055,0.092,0.107,0.119c0.066,0.033,0.13,0.072,0.197,0.106c0.063,0.032,0.122,0.068,0.198,0.066
	c0.122-0.002,0.183,0.091,0.237,0.177c0.037,0.059,0.075,0.112,0.129,0.155c0.035,0.028,0.066,0.063,0.093,0.099
	c0.034,0.044,0.072,0.065,0.13,0.07c0.061,0.005,0.125,0.003,0.184,0.047c0.077,0.057,0.088,0.122,0.073,0.204
	c-0.002,0.012-0.008,0.024-0.011,0.03c0.06,0.074,0.119,0.142,0.173,0.213c0.026,0.035,0.051,0.057,0.098,0.043
	c0.084-0.023,0.141,0.036,0.197,0.082c0.017,0.015,0.015,0.061,0.011,0.091c-0.003,0.024-0.022,0.046-0.041,0.081
	c0.035,0.037,0.074,0.075,0.11,0.115c0.033,0.035,0.072,0.066,0.093,0.107c0.043,0.085,0.114,0.13,0.196,0.166
	c0.026,0.011,0.054,0.022,0.08,0.036c0.072,0.037,0.133,0.08,0.125,0.176c-0.002,0.022,0.021,0.045,0.032,0.069
	c0.012,0.025,0.027,0.051,0.035,0.078c0.017,0.054,0.068,0.097,0.125,0.1c0.035,0.003,0.071,0.004,0.106,0.009
	c0.063,0.01,0.106,0.044,0.151,0.094c0.075,0.084,0.165,0.153,0.251,0.224c0.02,0.016,0.054,0.016,0.083,0.02
	c0.058,0.008,0.117,0.01,0.173,0.023c0.024,0.006,0.049,0.029,0.066,0.05c0.024,0.03,0.041,0.066,0.062,0.101
	c0.024-0.014,0.043-0.034,0.063-0.035c0.02,0,0.042,0.017,0.058,0.031c0.034,0.031,0.067,0.048,0.117,0.054
	c0.042,0.005,0.08,0.048,0.13,0.081c0.068-0.028,0.149-0.015,0.232,0.006c0.048,0.013,0.093,0.027,0.125,0.069
	c0.027,0.037,0.064,0.051,0.109,0.052c0.101,0,0.201,0.006,0.292,0.059c0.014,0.008,0.032,0.013,0.047,0.011
	c0.163-0.02,0.321,0.041,0.482,0.03c0.021-0.001,0.044,0.001,0.065,0c0.171-0.015,0.343-0.028,0.513-0.048
	c0.209-0.025,0.418-0.052,0.616-0.127c0.019-0.007,0.037-0.016,0.056-0.018c0.209-0.022,0.396-0.123,0.596-0.177
	c0.1-0.027,0.199-0.056,0.298-0.085c0.108-0.032,0.216-0.066,0.324-0.1c0.037-0.012,0.074-0.023,0.111-0.035
	c0.103-0.035,0.208-0.07,0.311-0.105c0.015-0.005,0.031-0.011,0.046-0.014c0.188-0.037,0.371-0.09,0.553-0.15
	c0.091-0.031,0.188-0.047,0.285-0.063c0.205-0.033,0.409-0.064,0.615-0.09c0.08-0.01,0.163-0.001,0.243-0.005
	c0.129-0.005,0.258-0.014,0.387-0.019c0.071-0.003,0.129,0.027,0.189,0.063c0.055,0.033,0.125,0.044,0.188,0.065
	c0.05-0.067,0.11-0.073,0.179-0.072c0.142,0,0.272,0.024,0.399,0.097c0.072,0.041,0.16,0.054,0.241,0.075
	c0.145,0.038,0.291,0.067,0.435,0.108c0.162,0.045,0.32,0.103,0.481,0.149c0.265,0.076,0.517,0.188,0.792,0.234
	c0.177,0.03,0.348,0.095,0.523,0.143c0.055,0.015,0.111,0.024,0.168,0.037c0.028,0.006,0.057,0.016,0.083,0.026
	c0.101,0.037,0.198,0.08,0.3,0.112c0.164,0.052,0.33,0.095,0.494,0.145c0.063,0.019,0.12,0.023,0.174-0.022
	c0.01-0.008,0.021-0.016,0.031-0.021c0.068-0.032,0.109-0.016,0.15,0.063c0.102-0.012,0.207-0.03,0.313-0.035
	c0.104-0.006,0.208,0,0.312,0c0.052,0,0.104-0.002,0.155-0.001c0.042,0.001,0.074-0.014,0.107-0.038
	c0.067-0.048,0.143-0.079,0.229-0.048c0.014,0.005,0.032,0.007,0.046,0.002c0.156-0.048,0.32-0.044,0.48-0.067
	c0.111-0.016,0.224-0.029,0.335-0.047c0.021-0.003,0.041-0.021,0.057-0.035c0.059-0.052,0.127-0.057,0.191-0.028
	c0.061,0.027,0.115,0.03,0.178,0.015c0.057-0.015,0.117-0.016,0.174-0.029c0.029-0.006,0.059-0.023,0.086-0.039
	c0.038-0.023,0.068-0.035,0.116-0.014s0.106,0.021,0.161,0.019c0.074-0.002,0.146-0.016,0.222-0.021
	c0.106-0.007,0.214-0.01,0.32-0.018c0.183-0.014,0.366-0.029,0.548-0.043c0.101-0.008,0.201-0.009,0.3-0.021
	c0.089-0.01,0.179-0.032,0.269-0.043c0.163-0.02,0.327-0.035,0.49-0.056c0.051-0.006,0.103-0.009,0.146-0.047
	c0.045-0.042,0.103-0.032,0.157-0.017c0.02,0.006,0.043,0.014,0.064,0.01c0.163-0.025,0.326-0.053,0.488-0.081
	c0.062-0.011,0.115-0.025,0.154-0.087c0.044-0.072,0.086-0.07,0.16-0.024c0.02,0.012,0.051,0.018,0.07,0.011
	c0.08-0.025,0.156-0.063,0.238-0.083c0.087-0.022,0.163-0.062,0.232-0.117c0.082-0.064,0.156-0.134,0.211-0.224
	c0.014-0.022,0.029-0.043,0.049-0.06c0.166-0.139,0.263-0.319,0.318-0.522c0.026-0.093,0.031-0.191,0.039-0.288
	c0.016-0.175,0.027-0.349,0.038-0.524c0.004-0.071-0.001-0.142,0.002-0.213c0.006-0.218,0.043-0.431,0.088-0.644
	c0.033-0.159,0.093-0.3,0.179-0.436c0.065-0.104,0.115-0.216,0.176-0.323c0.017-0.03,0.043-0.057,0.068-0.08
	c0.125-0.115,0.26-0.209,0.435-0.237c0.096-0.016,0.186-0.058,0.28-0.076c0.099-0.018,0.2-0.021,0.3-0.033
	c0.231-0.03,0.469-0.007,0.695-0.071c0.01-0.003,0.02-0.007,0.029-0.007c0.207-0.017,0.414-0.035,0.621-0.055
	c0.103-0.01,0.206-0.037,0.308-0.056c0.242-0.046,0.483-0.11,0.724-0.164c0.194-0.043,0.382-0.152,0.543-0.268
	c0.114-0.082,0.216-0.258,0.322-0.348c0.134-0.113,0.204-0.58,0.272-0.58c0.026,0,0.052,0,0.078,0C47.775,19,48,19.356,48,19.376
	C48,19.395,48,19.415,48,19.435z"/>
</svg>
