<?xml version="1.0" encoding="iso-8859-1"?>
<!-- Generator: Adobe Illustrator 16.0.0, SVG Export Plug-In . SVG Version: 6.00 Build 0)  -->
<!DOCTYPE svg PUBLIC "-//W3C//DTD SVG 1.1//EN" "http://www.w3.org/Graphics/SVG/1.1/DTD/svg11.dtd">
<svg version="1.1" id="Capa_1" xmlns="http://www.w3.org/2000/svg" xmlns:xlink="http://www.w3.org/1999/xlink" x="0px" y="0px"
	 width="577.394px" height="577.394px" viewBox="0 0 577.394 577.394" style="enable-background:new 0 0 577.394 577.394;"
	 xml:space="preserve">
<g>
	<path d="M37.675,210.295c-0.025-0.163-0.045-0.331-0.062-0.494c0.053-1.016,0.106-2.032,0.163-3.052
		c0.11-0.123,0.27-0.2,0.474-0.229c0.22,0.604,0.444,1.208,0.665,1.812c0.028,0.13,0.057,0.257,0.098,0.383
		c0.286,0.881,0.657,1.763,1.163,2.53c0.461,0.702,0.995,0.616,1.485-0.118c0.343-0.514,0.628-1.069,1.049-1.795
		c0.286,0.232,0.563,0.42,0.799,0.616c0.225,0.331,0.478,0.645,0.759,0.938c0.249,0.453,0.396,0.942,0.481,1.444
		c0,0,1.007,2.342,1.093,2.215c0.167-0.126,0.449-1.856,0.514-2.497c0.049-0.085,0.106-0.151,0.171-0.175
		c1.33-0.51,1.326-1.595,1.416-2.709c0.086-1.077,0.245-2.15,0.388-3.374c0.89,0.082,1.612,0.225,2.321,0.196
		c0.71-0.028,1.412-0.229,2.126-0.355c0.571,1.31,0.118,2.856,1.383,3.962c0.535-0.42,1.037-0.82,1.624-1.285
		c0.021,0.09,0.045,0.175,0.074,0.261c0.13,0.583,0.24,1.118,0.383,1.641c0.175,0.648,0.318,1.326,0.616,1.917
		c0.041,0.085,0.089,0.159,0.143,0.229c0.473,0.889,2.134,0.71,2.236-0.526c0.057-0.11,0.11-0.22,0.155-0.334
		c0.383-0.975,0.706-1.971,1.077-2.95c0.208-0.546,0.473-1.073,0.795-1.795c0.282,0.559,0.502,0.824,0.547,1.118
		c0.371,2.334,0.534,4.667,0.184,7.03c-0.229,1.539-0.938,2.869-1.498,4.276c-0.53,1.342-0.897,2.746-1.313,4.052
		c-2.424,0.286-4.831,0.469-7.193,0.889c-1.261,0.225-2.55,0.694-3.644,1.351c-1.709,1.024-3.064,2.509-4.28,4.096
		c-0.73,0.955-1.432,1.93-2.219,2.835c-0.874,1.004-2.24,0.987-3.358,1.493c-0.261,0.119-0.478,0.331-0.702,0.49
		c-0.232-0.221-0.408-0.481-0.567-0.759c-0.049-0.139-0.118-0.258-0.196-0.359c-0.367-0.689-0.73-1.392-1.669-1.697
		c-0.306,0.983-0.942,1.771-0.918,2.827c0.024,0.967,0.004,1.935,0.004,3.158c-0.665-0.775-1.106-1.285-1.457-1.693
		c-1.734,0.882-0.808,2.628-1.469,3.962c-0.935-0.812-1.139-2.028-2.31-2.346c-0.518,0.828-0.526,1.685-0.453,2.517
		c-0.147,0.303-0.155,0.67,0.069,1.045c0.008,0.017,0.02,0.032,0.028,0.049c-0.016,0.592-0.298,0.841-0.906,0.971
		c-0.236-0.203-0.428-0.371-0.591-0.521c-0.29-0.376-0.576-0.751-0.865-1.126c-0.2-0.384-0.42-0.902-0.763-1.71
		c-0.126-0.298-0.433-0.693-0.686-0.718c-0.241-0.024-0.604,0.326-0.779,0.6c-0.265,0.412-0.441,0.841-0.547,1.281
		c-0.033,0.098-0.053,0.199-0.061,0.298c-0.118,0.718-0.065,1.46,0.09,2.215c0.118,0.575,0.253,1.15,0.392,1.771
		c-0.392-0.298-0.783-0.596-1.175-0.898c-0.049-0.036-0.098-0.064-0.151-0.09c-0.375-0.525-0.779-1.012-1.505-1.179
		c-0.249,0.787-0.225,1.521-0.123,2.236c-0.004,0.13,0.017,0.257,0.062,0.379c0.114,0.648,0.265,1.281,0.314,1.93
		c-0.306-0.526-0.616-1.053-0.938-1.607c-0.734,0.257-0.792,0.845-0.877,1.428c-0.294,0.262-0.4,0.62-0.359,0.992
		c-0.077,0.09-0.167,0.171-0.286,0.24c-0.302-0.604-0.575-1.203-0.897-1.783c-0.4-0.71-1.081-0.808-1.453-0.102
		c-0.428,0.812-0.665,1.734-0.91,2.632c-0.143,0.514-0.139,1.068-0.204,1.611c-0.967-0.073-1.044-0.747-1.297-1.216
		c-0.616-1.154-1.171-2.342-1.787-3.497c-0.134-0.248-0.465-0.596-0.648-0.566c-0.302,0.049-0.718,0.318-0.808,0.587
		c-0.143,0.416-0.269,0.854-0.347,1.29v0.004c-0.049,0.273-0.078,0.551-0.073,0.82c0.008,1.175,0.184,2.354,0.29,3.528
		c-0.069,0.024-0.139,0.05-0.208,0.074c-0.514-1.082-1.024-2.159-1.571-3.313c-0.689,0.742-0.955,1.024-1.208,1.824
		c-0.293,0.289-0.453,0.718-0.306,1.175c-0.053,0.225-0.11,0.478-0.171,0.759c-0.062,0.11-0.102,0.229-0.126,0.354
		c-0.686-0.64-0.857-1.628-1.273-2.468c-0.021-0.221-0.131-0.38-0.282-0.478c-0.224-0.318-0.518-0.592-0.938-0.787
		c-0.906,2.452-1.554,4.74-1.481,7.136c-0.31,0.184-0.526,0.412-0.763,0.433c-1.085,0.102-1.53,0.771-1.714,1.746
		c-0.253,1.33-0.539,2.656-0.294,4.022c0.127,0.71,0.07,1.371-0.616,1.808c0,0.734,0,1.473,0,2.207
		c0.539,0.429,0.983,0.927,0.877,1.669c-0.216,1.526,0.461,2.628,1.567,3.57c0.314,0.27,0.51,0.677,0.828,0.942
		c0.796,0.677,1.555,1.44,2.456,1.93c1.559,0.853,3.187,1.607,4.843,2.252c2.085,0.816,4.092,1.963,6.417,1.959
		c1.408-0.004,2.958,0.195,4.187-0.314c1.464-0.604,2.758,0.404,4.088-0.094c0.343-0.127,0.702-0.225,1.028-0.384
		c3.048-1.51,6.079-3.056,9.143-4.533c2.354-1.134,4.753-2.178,6.879-3.149c1.281,0.453,2.297,0.853,3.342,1.167
		c0.494,0.151,1.073,0.041,1.546,0.225c1.636,0.641,3.33,0.473,4.966,0.257c2.276-0.298,4.5-0.963,6.772-1.277
		c1.914-0.265,3.868-0.383,5.798-0.334c2.346,0.061,4.688,0.371,7.034,0.555c0.682,0.053,1.363,0.065,2.048,0.062
		c1.501-0.013,3.007-0.033,4.508-0.086c1.62-0.058,3.248-0.311,4.851-0.204c2.093,0.135,4.141,0.249,6.23-0.151
		c2.591-0.493,5.141-1.15,7.458-2.374c3.011-1.587,5.981-3.272,8.609-5.483c1.208-1.021,2.521-1.437,3.97-0.445
		c0.804,0.551,1.612,0.653,2.387-0.15c0.184,0.322,0.412,0.547,0.367,0.669c-0.375,1.02,0.11,1.542,0.979,1.938
		c0.522,0.237,1.003,0.56,1.493,0.861c0.702,0.429,1.498,0.755,1.856,1.656c-0.204,0.298-0.571,0.584-0.583,0.89
		c-0.061,1.53-0.355,3.158,0.045,4.578c0.481,1.709,1.893,2.978,3.448,3.904c0.624,0.371,1.065,0.804,1.362,1.444
		c0.286,0.62,0.6,1.224,0.926,1.819c1.053,1.93,1.938,4.003,3.713,5.398c1.926,1.514,3.276,3.5,4.798,5.352
		c0.53,0.648,1.15,1.232,1.636,1.91c0.58,0.803,1.167,1.637,0.616,2.738c-0.118,0.236-0.012,0.619,0.065,0.912
		c0.726,2.734,1.514,5.451,2.195,8.193c0.318,1.285,0.963,2.488,0.771,3.934c-0.082,0.611,0.384,1.453,0.853,1.953
		c1.856,1.988,3.811,3.881,5.728,5.811c0.424,0.43,0.857,0.846,1.146,1.131c-0.542,0.754-1.146,1.277-1.33,1.918
		c-0.249,0.877-0.787,1.275-1.514,1.635c-1.542,0.768-3.064,1.576-4.59,2.371c-0.775,0.404-1.522,0.877-2.33,1.211
		c-1.012,0.416-1.632,1.082-1.836,2.168c-0.302,1.582,0.91,4.549,2.33,5.355c0.379,0.217,1.167,0.262,1.436,0.021
		c0.71-0.645,1.616-1.176,1.779-2.309c0.135-0.936,0.885-1.277,1.889-1.604c-0.596,0.949-1.188,1.639-1.505,2.439
		c-0.641,1.607-1.163,3.256-1.151,5.029c0.004,0.506-0.082,1.07-0.314,1.51c-0.51,0.977-0.514,2.02-0.11,2.902
		c0.625,1.361,1.518,2.605,2.322,3.883c0.135,0.213,0.375,0.363,0.591,0.52c1.134,0.803,2.008,0.521,2.322-0.838
		c0.502-2.166,1.228-4.328,0.396-6.58c-0.016-0.049-0.004-0.105-0.016-0.154c-0.204-0.891-0.021-1.633,0.698-2.27
		c0.331-0.293,0.743-0.771,0.714-1.135c-0.106-1.342,0.608-2.244,1.351-3.211c0.535-0.693,1.089-1.48,1.256-2.305
		c0.176-0.857,0.522-1.432,1.241-1.91c1.085,0.385,2.134,0.168,3.109-0.436c1.016-0.629,1.187-1.543,0.938-2.633
		c0.706,0.221,1.452,0.355,2.224,0.408c0.432,0.25,0.861,0.502,1.293,0.752c2.774,1.578,5.586,3.088,8.311,4.748
		c1.648,1.004,3.113,2.311,4.741,3.35c2.064,1.322,4.169,2.604,6.348,3.721c1.473,0.756,3.109,1.201,4.676,1.775
		c0.661,0.244,1.33,0.469,2.134,0.756c-1.261,1.312-2.521,2.227-4.166,2.66c-1.448,0.379-3.036,0.447-4.255,1.473
		c-1.012,0.852-2.326,1.232-3.264,2.23c-0.326,0.352-1.069,0.34-1.632,0.43c-0.461,0.072-0.975-0.049-1.408,0.094
		c-1.314,0.432-2.473-0.012-3.651-0.469c-0.384-0.148-0.853-0.449-1.167-0.34c-0.967,0.334-1.856,0.018-2.783-0.072
		c-0.49-0.045-0.991,0.045-1.473,0.072c-0.314,1.453,0.008,2.566,0.824,3.555c0.265,0.322,0.652,0.586,0.816,0.949
		c0.579,1.311,1.636,1.576,2.938,1.678c1.942,0.154,3.982-0.012,5.757,1.191c-0.449,0.645-1.118,0.754-1.791,0.873
		c-0.4,0.068-0.865,0.113-1.171,0.342c-1.469,1.094-3.154,1.146-4.807,0.873c-1.726-0.285-3.504-0.057-5.189-0.648
		c-0.159-0.057-0.392,0.098-0.759,0.201c0,0.652-0.216,1.416,0.037,1.957c0.987,2.094,2.624,3.611,4.953,3.941
		c1.791,0.254,3.644,0.152,5.463,0.09c3.113-0.105,5.537-2.016,8.181-3.316c0.298-0.146,0.494-0.531,0.702-0.832
		c1.379-2.012,3.166-3.652,5.059-5.137c1.004-0.787,2.248-1.311,3.448-1.799c1.416-0.58,2.66-1.229,2.995-2.91
		c0.061-0.301,0.379-0.604,0.649-0.803c1.559-1.146,3.137-2.262,4.431-3.191c1.702,0.393,3.101,0.902,4.525,1.012
		c3.974,0.314,7.956,0.51,11.938,0.662c4.349,0.162,8.703,0.236,13.056,0.318c1.722,0.031,3.443-0.014,5.165-0.041
		c2.677-0.041,5.353-0.029,8.025-0.168c2.513-0.131,5.01-0.525,7.523-0.641c3.244-0.143,6.479-0.355,9.743-0.15
		c3.778,0.232,7.495,0.379,11.085,1.904c2.525,1.074,4.908,2.338,7.254,3.725c1.665,0.988,3.301,2.061,5.3,2.254
		c2.962,0.285,5.589-0.771,7.56-2.779c1.212-1.236,2.077-0.979,3.24-0.473c0.575,0.248,1.122,0.57,1.693,0.832
		c0.951,0.436,1.881,1.098,2.876,1.215c1.713,0.205,3.167,1.074,4.778,1.486c1.681,0.432,2.578,1.492,3.17,3.109
		c0.824,2.252,2.269,4.152,4.329,5.426c1.624,1.004,2.999,2.469,4.99,2.832c0.13,0.023,0.244,0.184,0.347,0.297
		c1.51,1.645,3.423,2.326,5.605,2.314c1.122-0.006,2.171,0.236,3.19,0.713c0.6,0.281,1.273,0.428,1.926,0.584
		c1.265,0.301,2.497,0.502,3.28,1.828c0.421,0.709,1.326,1.146,2.04,1.668c0.408,0.299,0.877,0.518,1.51,0.881
		c-0.657,0.809-1.163,1.607-1.836,2.229c-1.767,1.637-3.603,3.193-5.418,4.781c-0.196,0.172-0.425,0.311-0.633,0.469
		c-1.604,1.258-3.207,2.51-4.802,3.771c-1.024,0.807-1.935,1.826-3.072,2.398c-1.155,0.584-1.677,1.51-2.212,2.525
		c-0.293,0.555-0.596,1.109-0.894,1.664c-0.22,1.832-0.224,3.754-0.216,5.676c0,0.465,0.163,0.967,0.028,1.383
		c-0.428,1.338-0.094,2.596,0.225,3.867c0.098,0.396,0.216,0.82,0.159,1.209c-0.106,0.771-0.257,1.551-0.519,2.279
		c-0.689,1.947-0.024,3.578,1.049,5.15c0.388,0.562,0.768,1.102,0.474,1.873c-0.082,0.215,0.077,0.684,0.277,0.824
		c1.236,0.859,1.277,2.234,1.55,3.492c0.348,1.607,0.931,2.912,2.656,3.578c0.804,0.309,1.767,1.061,1.991,1.814
		c0.314,1.053,0.689,2.057,1.126,3.061c0.641,1.469,1.611,2.686,2.758,3.766c0.8,0.756,1.718,1.162,2.873,0.816
		c0.428-0.127,1.057-0.225,1.358-0.008c1.105,0.795,2.354,0.787,3.61,0.844c0.106,0.285,0.168,0.543,0.29,0.768
		c0.755,1.387,1.135,2.938,2.896,3.705c1.841,0.799,3.583,1.188,5.447,0.473c1.064-0.408,2.072-0.57,3.207-0.33
		c0.575,0.121,1.276,0.02,1.836-0.201c3.713-1.48,5.476-4.486,6.229-8.217c0.07-0.346-0.064-0.979-0.293-1.09
		c-0.339-0.162-0.865-0.039-1.273,0.082c-0.901,0.27-1.758,0.689-2.668,0.902c-0.698,0.162-1.547,0.244-1.979-0.521
		c-0.404-0.715-0.76-1.494-0.069-2.33c0.281-0.344,0.383-0.854,0.489-1.311c0.253-1.08-0.18-1.492-1.229-1.207
		c-0.481,0.131-0.958,0.27-1.399,0.395c-0.143-0.26-0.204-0.346-0.236-0.439c-0.032-0.098,0-0.232-0.058-0.307
		c-1.134-1.439-0.64-2.975-0.428-4.574c0.322-2.422,1.252-4.729,1.317-7.201c0.009-0.342,0.322-0.75,0.608-0.994
		c0.954-0.816,1.803-1.682,2.387-2.832c1.399-2.75,2.786-5.516,4.361-8.168c1.71-2.877,3.79-5.475,6.732-7.486
		c0.343,0.492,0.673,0.994,1.027,1.484c0.196,0.27,0.396,0.543,0.646,0.76c1.514,1.293,3.015,2.602,4.573,3.842
		c1.636,1.303,3.317,2.551,5.01,3.775c1.738,1.256,3.501,2.48,5.284,3.668c1.342,0.893,2.746,1.701,4.104,2.57
		c1.191,0.762,2.37,1.537,3.525,2.354c0.265,0.188,0.424,0.551,0.591,0.857c1.159,2.064,1.236,4.406,1.702,6.65
		c0.053,0.248,0.04,0.529-0.021,0.775c-0.49,2.084-1.017,4.164-1.489,6.254c-0.18,0.795-0.637,1.121-1.416,1.195
		c-0.506,0.049-1.09,0.098-1.481,0.375c-0.71,0.506-1.207,1.408-1.966,1.715c-0.759,0.309-1.738,0.035-2.607,0.125
		c-0.979,0.098-1.946,0.311-2.872,0.465c-0.298,0.422-0.519,1.09-0.869,1.168c-1.294,0.281-2.424,1.146-3.868,0.934
		c-1.632-0.236-3.19-0.131-4.455,1.244c-1.367,1.486-2.036,3.229-2.326,5.17c0.56,0.49,0.106,0.795-0.212,1.109
		c-0.261,0.262-0.575,0.471-0.8,0.756c-1.199,1.514-2.402,3.023-3.533,4.59c-0.229,0.318-0.313,0.934-0.163,1.289
		c0.221,0.525,0.755,0.232,1.229,0.209c0.869-0.045,1.75,0.154,2.627,0.248c0.024,0.105,0.054,0.209,0.078,0.314
		c-1.612,1.094-2.738,2.578-3.668,4.234c-1.102,1.967-1.184,4.102-1.09,6.264c0.009,0.211,0.236,0.562,0.404,0.588
		c0.257,0.039,0.587-0.09,0.815-0.246c0.359-0.248,0.649-0.807,0.996-0.832c1.396-0.094,2.852-0.266,4.194,0.025
		c1.693,0.367,3.288,0.309,4.965,0.057c1.534-0.232,3.158-0.891,4.484,0.135c-0.262,2.035-0.547,3.934-0.719,5.846
		c-0.053,0.588,0.208,1.205,0.327,1.809c0.313,0,0.632,0,0.946,0c0.755-1.176,1.819-1.633,3.211-1.523
		c1.697,0.135,3.407,0.279,5.108,0.238c1.289-0.033,2.717-0.055,3.822-0.6c1.616-0.797,3.183-0.842,4.852-0.629
		c2.057,0.266,3.99-0.021,5.646-1.363c0.922-0.746,1.673-1.881,2.714-2.268c1.117-0.412,2.488-0.152,3.745-0.184
		c0.106-0.004,0.208-0.014,0.314-0.021c2.007-0.154,3.753-0.934,5.161-2.361c0.424-0.43,0.774-0.576,1.358-0.51
		c1.392,0.154,2.75-0.172,3.933-0.828c1.931-1.07,3.578-2.432,3.31-5.023c-0.049-0.453,0.122-0.926,0.167-1.391
		c0.041-0.412,0.155-0.861,0.041-1.232c-0.314-1.049-0.653-2.105-1.118-3.094c-1.098-2.32-2.012-4.711-2.982-7.082
		c-1.008-2.461-0.661-4.893-0.661-7.361c0-0.281,0.225-0.562,0.363-0.889c0.559,0.105,1.158,0.064,1.555,0.33
		c0.571,0.385,1.061,0.348,1.619,0.127c1.738-0.678,3.464-1.4,5.395-1.229c0.077,0.008,0.163-0.105,0.244-0.162
		c0.135-1.434,0.135-1.434,0.579-1.824c2.257-1.971,2.538-6.219,0.539-8.377c-0.184-0.199-0.608-0.428-0.771-0.346
		c-0.257,0.131-0.493,0.488-0.559,0.787c-0.322,1.525-0.645,1.783-2.216,1.73c-0.465-0.018-1.057-0.107-1.37,0.129
		c-0.927,0.686-1.91,0.662-2.954,0.551c-0.29-0.027-0.592,0.059-0.983,0.104c-0.429-1.641-0.596-3.266-0.311-4.934
		c0.318-1.859,0.519-3.725,0.099-5.609c-0.2-0.891-0.625-1.869-0.433-2.686c0.489-2.076,0.607-4.115,0.273-6.213
		c-0.163-1.037-0.257-2.068-0.927-2.951c-0.212-0.281-0.313-0.656-0.424-0.998c-0.433-1.34-1.277-2.18-2.64-2.664
		c-1.498-0.535-3.22-0.557-4.419-1.857c-0.204-0.221-0.689-0.258-1.04-0.244c-0.771,0.02-1.069-0.348-1.318-1.049
		c-0.232-0.656-0.75-1.207-1.138-1.812c-0.168-0.256-0.303-0.533-0.474-0.791c-0.424-0.641-0.861-1.273-1.298-1.904
		c-0.293-0.426-0.632-0.82-0.881-1.266c-1.815-3.256-2.113-6.998-3.288-10.461c-0.805-2.363-1.245-4.848-1.963-7.242
		c-0.571-1.9-1.298-3.758-1.999-5.613c-0.873-2.314-1.987-4.496-3.554-6.432c-1.313-1.623-2.546-3.32-3.917-4.895
		c-2.064-2.371-4.088-4.803-6.924-6.338c-1.746-0.945-3.436-2.023-5.255-2.799c-1.808-0.773-3.705-1.525-5.631-1.791
		c-2.941-0.402-5.899-0.953-8.902-0.717c-0.195,0.016-0.399-0.053-0.755-0.107c0.054-0.496,0.058-0.953,0.155-1.391
		c0.266-1.162,0.71-2.305,0.837-3.48c0.358-3.275,0.611-6.564,0.86-9.85c0.106-1.369,0.077-1.508,1.465-1.791
		c2.37-0.48,4.647-1.227,6.851-2.207c1.436-0.637,2.864-1.293,4.259-2.016c4.692-2.436,8.838-5.576,12.461-9.449
		c1.493-1.594,3.17-3.092,4.994-4.283c3.227-2.105,6.581-3.99,10.407-4.938c2.579-0.637,5.052-1.693,7.602-2.477
		c1.595-0.488,3.223-0.885,4.863-1.195c2.265-0.424,4.569-0.641,6.821-1.101c2.51-0.51,4.986-1.18,7.467-1.815
		c1.261-0.322,2.534-0.645,3.75-1.106c2.447-0.922,4.863-1.926,7.282-2.917c2.473-1.016,4.937-2.044,7.394-3.088
		c3.419-1.457,6.846-2.889,10.236-4.415c3.439-1.551,6.834-3.194,10.245-4.807c1.607-0.759,3.243-1.464,4.806-2.313
		c3.411-1.855,6.68-3.929,9.678-6.417c0.764-0.633,1.652-1.11,2.448-1.706c1.334-1.004,2.619-2.068,3.958-3.063
		c1.75-1.306,3.549-2.546,5.3-3.855c1.465-1.098,2.889-2.257,4.329-3.391c0.244-0.192,0.51-0.367,0.738-0.58
		c2.921-2.705,5.769-5.471,8.494-8.384c2.705-2.889,4.97-6.1,7.291-9.262c1.669-2.269,2.986-4.811,4.333-7.303
		c3.08-5.696,4.737-11.844,5.581-18.233c0.27-2.024,0.498-4.056,0.76-6.08c0.367-2.848,1.036-5.691,1.068-8.543
		c0.065-5.61-0.09-11.232-0.399-16.838c-0.217-3.86,0.265-7.54,1.758-11.073c0.653-1.542,1.547-2.905,2.971-3.97
		c2.909-2.17,6.201-3.525,9.571-4.676c2.199-0.75,4.529-1.122,6.793-1.693c5.659-1.424,10.988-3.774,16.373-5.953
		c2.665-1.077,5.243-2.387,7.948-3.35c4.647-1.652,8.286-4.68,11.433-8.282c2.986-3.419,5.034-7.434,6.242-11.844
		c0.105-0.388,0.191-0.869,0.8-0.739c0-0.314,0-0.632,0-0.946c-0.314-0.314-0.633-0.632-0.947-0.947c-0.42,0-0.84,0-1.261,0
		c-1.102,2.505-2.243,4.986-4.402,6.806c-1.726,1.452-3.365,3.015-5.193,4.329c-2.623,1.885-5.643,2.999-8.78,3.692
		c-3.88,0.857-7.788,1.587-11.693,2.326c-1.644,0.31-3.305,0.58-4.97,0.739c-3.337,0.314-6.683,0.534-10.024,0.799
		c-0.154,0.012-0.313,0.033-0.465,0.074c-3.68,1.04-7.503,0.653-11.24,1.134c-1.607,0.208-3.248,0.22-4.835,0.518
		c-1.534,0.29-2.99,0.983-4.528,1.228c-2.824,0.449-5.003,1.962-7.022,3.815c-0.42,0.383-0.84,0.812-1.113,1.301
		c-0.967,1.722-1.771,3.542-2.823,5.206c-1.392,2.191-2.367,4.472-2.901,7.042c-0.718,3.444-1.317,6.879-1.42,10.396
		c-0.032,1.146,0.045,2.297-0.024,3.439c-0.167,2.823-0.363,5.643-0.607,8.462c-0.135,1.555-0.221,3.15-0.633,4.643
		c-0.897,3.276-2.473,6.197-5.141,8.433c-0.314,0.266-0.575,0.616-0.792,0.971c-0.881,1.453-2.097,2.579-3.414,3.619
		c-1.127,0.889-2.343,1.526-3.754,1.881c-1.31,0.331-2.546,0.942-3.84,1.346c-0.334,0.106-0.828,0.008-1.134-0.179
		c-1.199-0.734-1.877-0.767-2.599,0.392c-0.625,1-1.494,1.232-2.481,1.403c-2.627,0.453-5.259,0.898-7.895,1.314
		c-0.334,0.053-0.706-0.069-1.044-0.167c-0.89-0.257-1.808-0.408-2.534,0.257c-0.693,0.632-1.53,0.673-2.338,0.775
		c-2.644,0.339-5.296,0.575-7.939,0.906c-1.448,0.184-2.872,0.543-4.325,0.706c-1.604,0.179-3.223,0.208-4.834,0.331
		c-2.954,0.22-5.904,0.477-8.858,0.693c-1.722,0.126-3.451,0.175-5.173,0.298c-1.195,0.086-2.387,0.306-3.587,0.339
		c-0.869,0.024-1.819,0.024-2.591-0.302c-0.779-0.33-1.276-0.143-1.885,0.221c-0.437,0.261-0.901,0.53-1.387,0.64
		c-0.918,0.208-1.881,0.233-2.791,0.465c-1.012,0.253-1.905,0.192-2.885-0.241c-1.044-0.461-2.154-0.388-3.089,0.465
		c-0.261,0.236-0.579,0.506-0.901,0.559c-1.803,0.29-3.619,0.506-5.426,0.763c-2.587,0.367-5.231,0.302-7.761,1.077
		c-0.225,0.069-0.514,0.041-0.742-0.037c-1.396-0.49-2.6-0.004-3.692,0.783c-0.543,0.392-1.053,0.632-1.722,0.612
		c-0.837-0.024-1.677,0.024-2.514,0.021c-1.677-0.004-3.357-0.102-5.03-0.008c-1.71,0.094-3.411,0.375-5.063,0.567
		c-0.637-1.285-1.306-1.538-2.407-1.02c-0.188,0.09-0.371,0.204-0.53,0.338c-0.857,0.739-1.787,0.665-2.799,0.359
		c-2.652-0.804-5.333-1.514-7.973-2.35c-1.64-0.518-3.228-1.208-4.843-1.808c-0.437-0.163-0.886-0.306-1.343-0.412
		c-0.905-0.212-1.831-0.355-2.725-0.6c-2.819-0.771-5.586-1.816-8.45-2.305c-4.427-0.755-8.511-2.554-12.778-3.778
		c-2.611-0.747-5.17-1.677-7.78-2.415c-2.318-0.657-4.685-1.139-7.018-1.738c-1.314-0.339-2.734-0.551-3.885-1.208
		c-2.048-1.167-4.166-1.555-6.471-1.563c-1.118-0.004-2.081,0.082-2.893,1.171c-1.028-0.338-2.143-0.514-3.036-1.048
		c-0.979-0.587-1.921-1.073-3.063-1.028c-2.081,0.082-4.158,0.225-6.238,0.306c-1.31,0.053-2.64-0.086-3.934,0.078
		c-3.317,0.42-6.625,0.93-9.931,1.464c-1.546,0.249-3.113,0.51-4.594,1.004c-2.934,0.975-5.892,1.828-8.927,2.423
		c-0.253,0.049-0.502,0.147-0.747,0.229c-1.677,0.567-3.354,1.134-5.031,1.697c-0.591,0.2-1.191,0.379-1.787,0.567
		c-1.742,0.542-3.484,1.102-5.234,1.62c-1.6,0.478-3.207,0.926-4.818,1.363c-3.228,0.873-6.23,2.505-9.613,2.864
		c-0.306,0.033-0.6,0.175-0.894,0.29c-3.211,1.204-6.585,1.64-9.959,2.044c-2.754,0.327-5.521,0.539-8.283,0.788
		c-0.351,0.033-0.71-0.012-1.061,0.008c-2.62,0.163-5.161-0.816-7.793-0.498c-0.245,0.029-0.539-0.045-0.755-0.171
		c-1.464-0.853-3.08-0.951-4.708-0.963c-0.727-0.008-1.338-0.245-1.771-0.832c-0.506-0.682-1.224-0.918-2.007-1.122
		c-1.33-0.347-2.644-0.559-3.745-0.098c-0.812-0.539-1.424-1.236-2.105-1.313c-0.804-0.09-1.351-0.363-1.897-0.869
		c-0.257-0.237-0.625-0.506-0.935-0.498c-0.322,0.008-0.636,0.331-1.032,0.563c-0.339-0.576-0.608-1.151-0.991-1.636
		c-0.273-0.343-0.669-0.718-1.069-0.812c-0.91-0.212-1.86-0.245-2.791-0.379c-0.453-0.065-1.012-0.053-1.33-0.314
		c-1.408-1.146-2.864-2.269-4.064-3.619c-0.714-0.808-1.419-1.354-2.439-1.518c-0.563-0.09-1.143-0.11-1.714-0.147
		c-0.91-0.053-1.742-0.743-2.016-1.612c-0.134-0.437-0.367-0.849-0.563-1.265c-0.179-0.375-0.555-0.759-0.526-1.11
		c0.135-1.554-0.856-2.24-2.011-2.835c-0.416-0.216-0.853-0.396-1.285-0.583c-1.326-0.567-2.477-1.293-3.17-2.664
		c-0.334-0.661-0.979-1.175-1.501-1.738c-0.592-0.641-1.208-1.261-1.783-1.856c0.298-0.563,0.608-0.918,0.657-1.301
		c0.062-0.49,0.102-1.232-0.184-1.465c-0.897-0.743-1.807-1.689-3.178-1.314c-0.75,0.204-1.15-0.151-1.571-0.702
		c-0.885-1.155-1.832-2.265-2.799-3.452c0.037-0.094,0.139-0.282,0.175-0.481c0.249-1.322,0.053-2.375-1.179-3.297
		c-0.958-0.714-1.979-0.673-2.966-0.763c-0.942-0.086-1.555-0.416-2.102-1.13c-0.444-0.579-0.934-1.146-1.501-1.595
		c-0.886-0.698-1.498-1.546-2.093-2.497c-0.881-1.399-1.865-2.909-3.831-2.868c-1.228,0.024-2.191-0.559-3.199-1.073
		c-1.073-0.547-2.105-1.171-3.178-1.714c-0.836-0.424-1.489-0.979-1.73-1.917c-0.2-0.783-0.722-1.22-1.42-1.567
		c-0.996-0.494-1.958-0.995-3.129-0.856c-0.351,0.041-0.8,0.012-1.065-0.176c-0.604-0.424-1.252-0.702-1.926-0.914
		c-1.187-0.608-2.432-1.118-3.733-1.518c-0.824-0.575-1.718-0.996-2.726-1.216c-0.388-0.085-0.938-0.277-1.053-0.567
		c-0.416-1.028-1.313-1.302-2.191-1.628c-1.252-0.465-2.326-1.138-3.215-2.17c-0.424-0.49-1.065-0.833-1.665-1.126
		c-0.938-0.465-2.027-0.685-2.868-1.273c-1.346-0.946-2.852-1.199-4.382-1.338c-1.566-0.139-3.146-0.086-4.721-0.123
		c-0.253-0.004-0.546,0.028-0.754-0.082c-1.498-0.779-3.072-0.763-4.705-0.673c-0.946,0.049-2.077-0.008-2.835-0.481
		c-1.073-0.669-1.991-0.767-3.101-0.334c-1.693,0.661-3.407,1.281-5.088,1.909c-1.02-1.277-2.056-1.783-3.109-1.469
		c-1.212,0.363-1.726,1.367-1.893,2.489c-0.237,1.595-1.208,2.709-2.097,3.884c-1.396-0.535-1.42-0.518-2.195,0.44
		c-0.653,0.808-1.326,1.604-1.991,2.403c-2.403-0.286-2.383-0.273-3.77,1.795c-0.4,0.596-0.84,1.305-1.44,1.599
		c-2.24,1.089-4.3,2.615-6.875,2.942c-0.824,0.106-1.624,0.375-2.432,0.591c-1.273,0.343-2.514,0.592-3.86,0.196
		c-0.828-0.245-1.824-0.412-2.624-0.191c-2.162,0.596-4.312,0.591-6.512,0.44c-0.983-0.069-1.987,0.065-2.979,0.135
		c-0.775,0.053-1.55,0.171-2.325,0.229c-1.041,0.073-2.089,0.094-3.125,0.179c-1.143,0.098-2.289,0.208-3.419,0.388
		c-0.604,0.098-1.334,0.188-1.742,0.571c-1.391,1.289-3.162,1.967-4.655,3.113c-1.897,1.457-3.684,2.896-4.782,4.928
		c-0.4-0.11-0.734-0.322-0.942-0.236c-0.89,0.363-1.734,0.836-2.611,1.228c-2.558,1.138-4.782,2.778-6.924,4.553
		c-0.8,0.661-1.607,1.31-2.411,1.966c-0.368,0.315-0.78,0.604-1.143,0.947c-0.302,0.281-0.494,0.706-0.829,0.918
		c-2.06,1.322-3.04,3.5-4.365,5.406c0,0.633,0,1.261,0,1.893c0.343,0.951,0.702,1.894,1.02,2.848
		c0.641,1.942,0.351,4.207,2.011,5.802c0.094,0.09,0.073,0.302,0.118,0.453c0.253,0.853,0.551,1.697,0.763,2.562
		c0.225,0.93,0.734,1.306,1.644,0.922c0.437,1.648,0.441,1.652,1.387,2.477c0.355-0.135,0.71-0.269,1.077-0.408
		c1.159,4.043,1.159,4.043,2.285,4.365c0.326-0.747,0.444-1.554,0.583-2.358c0.025-0.049,0.049-0.098,0.069-0.151
		c0.261-0.665,0.522-1.326,0.784-1.991c0.229,0.861,0.359,1.722,0.555,2.57c0.245,1.073,0.514,2.142,0.873,3.183
		c0.11,0.326,0.531,0.542,0.812,0.812c0.27-0.293,0.645-0.542,0.788-0.885c0.167-0.408,0.22-0.861,0.314-1.297
		c0.045-0.078,0.09-0.159,0.126-0.249c0.4-0.955,0.8-1.909,1.2-2.868c0.102,1.82,0.159,3.305,0.29,4.782
		c0.078,0.885,0.212,1.775,0.453,2.627c0.089,0.323,0.546,0.722,0.853,0.743c0.277,0.017,0.734-0.392,0.84-0.706
		c0.4-1.184,0.747-2.395,1.012-3.619c0.399-1.856,1.367-3.362,2.615-4.737c0.849,0.763,0.865,0.763,0.918,1.876
		c0.053,1.188,0.106,2.375,0.465,3.501c0.024,0.122,0.049,0.249,0.074,0.371c0.053,0.245,0.163,0.429,0.306,0.563
		c0.049,0.094,0.098,0.188,0.155,0.282c0.469,0.8,0.987,0.857,1.567,0.118c0.432-0.551,0.808-1.15,1.375-1.971
		c0.094,0.632,0.119,0.894,0.167,1.146c0.216,1.089,0.416,2.179,0.641,3.264c0.012,0.281,0.024,0.559,0.037,0.84
		c0.012,0.318,0.139,0.575,0.322,0.771c0.017,0.069,0.033,0.139,0.049,0.208c0.089,0.367,0.591,0.636,0.901,0.951
		c0.302-0.314,0.759-0.583,0.877-0.959c0.363-1.146,0.575-2.338,0.889-3.5c0.347-1.273,0.747-2.534,1.122-3.799
		c0.139,0.282,0.257,0.563,0.359,0.841c0.086,0.359,0.2,0.71,0.339,1.048c0.139,0.486,0.265,0.963,0.416,1.436
		c0.392,1.245,0.816,2.493,1.367,3.672c0.375,0.799,1.253,0.856,2.367,0.4C38.001,211.515,37.769,210.957,37.675,210.295z"/>
</g>
<g>
</g>
<g>
</g>
<g>
</g>
<g>
</g>
<g>
</g>
<g>
</g>
<g>
</g>
<g>
</g>
<g>
</g>
<g>
</g>
<g>
</g>
<g>
</g>
<g>
</g>
<g>
</g>
<g>
</g>
</svg>
